<?xml version="1.0" standalone="no"?>
<!DOCTYPE svg PUBLIC "-//W3C//DTD SVG 20010904//EN"
 "http://www.w3.org/TR/2001/REC-SVG-20010904/DTD/svg10.dtd">
<svg version="1.0" xmlns="http://www.w3.org/2000/svg"
 width="1250.000000pt" height="1250.000000pt" viewBox="0 0 1250.000000 1250.000000"
 preserveAspectRatio="xMidYMid meet">
<metadata>
Created by potrace 1.14, written by Peter Selinger 2001-2017
</metadata>
<g transform="translate(0.000000,1250.000000) scale(0.100000,-0.100000)"
fill="#000000" stroke="none">
<path d="M4182 12483 c-5 -10 -24 -63 -42 -118 -18 -55 -67 -170 -110 -255
-42 -85 -96 -202 -121 -260 -24 -58 -48 -109 -54 -113 -10 -8 -129 -3 -212 9
-35 5 -51 1 -85 -19 -61 -36 -144 -141 -206 -260 -29 -56 -60 -112 -68 -124
-8 -12 -14 -36 -14 -53 0 -17 -7 -45 -16 -62 -14 -27 -14 -30 -1 -25 9 3 21
-1 28 -9 7 -8 20 -12 33 -9 21 6 21 6 2 -9 -11 -9 -28 -16 -37 -16 -36 0 -67
57 -56 100 3 11 1 20 -4 20 -24 0 -3 -103 25 -122 55 -37 150 54 104 100 -23
23 127 127 219 150 57 15 191 4 288 -23 28 -7 96 -21 151 -31 l101 -17 37 29
c21 16 46 46 57 67 24 46 76 267 94 403 16 115 49 214 72 214 8 0 40 -15 71
-33 108 -63 239 -104 294 -92 18 4 35 2 45 -6 13 -11 20 -9 44 19 58 65 215
148 403 213 89 32 96 36 96 61 0 39 10 58 30 58 17 0 16 -9 -15 -97 -18 -54
-37 -97 -43 -96 -5 1 -10 -19 -10 -46 0 -45 3 -50 65 -111 59 -59 90 -98 81
-104 -2 -2 -14 -10 -27 -19 -14 -9 -55 -46 -92 -82 -59 -58 -67 -71 -72 -111
-2 -25 -2 -58 2 -72 7 -24 1 -33 -42 -72 -27 -24 -78 -66 -113 -93 -35 -26
-64 -51 -64 -55 0 -4 -18 -26 -40 -50 -37 -39 -45 -61 -42 -102 1 -8 -11 -70
-26 -138 -29 -131 -28 -130 -100 -137 -20 -3 -104 -30 -187 -60 -400 -148
-953 -317 -1075 -329 -25 -2 -59 -7 -76 -11 l-32 -7 15 63 c17 72 11 170 -13
228 -19 44 -67 96 -106 112 -19 8 -27 17 -23 28 2 9 0 23 -5 31 -8 12 -10 12
-10 -5 -1 -18 -2 -18 -14 4 l-13 24 -18 -27 c-18 -28 -29 -123 -15 -141 9 -12
32 -166 26 -173 -5 -5 -11 16 -21 83 -4 22 -11 46 -17 52 -6 7 -8 30 -6 51 3
35 1 38 -17 34 -76 -19 -130 -158 -123 -319 3 -72 1 -94 -10 -98 -26 -10 -147
-5 -237 10 -49 8 -114 15 -142 15 -55 0 -226 33 -392 76 -112 29 -147 39 -471
138 -314 95 -483 130 -718 147 -168 12 -418 6 -492 -12 -25 -6 -56 -13 -70
-15 -46 -8 -189 -84 -195 -103 -3 -11 -17 -26 -30 -35 -17 -11 -25 -26 -25
-46 0 -49 21 -80 79 -117 31 -20 76 -52 101 -73 45 -37 77 -57 180 -113 30
-16 75 -42 100 -58 127 -79 352 -166 690 -264 301 -88 499 -136 600 -145 52
-5 167 -22 255 -38 88 -17 205 -35 260 -42 55 -6 141 -20 190 -30 50 -10 162
-28 250 -40 88 -12 220 -30 293 -40 73 -11 147 -21 165 -21 30 -2 29 -2 -8 -8
-36 -6 -30 -8 55 -20 52 -7 113 -19 135 -26 22 -8 63 -17 90 -20 28 -4 97 -18
155 -31 400 -89 815 -180 867 -189 23 -3 44 -13 47 -21 3 -7 12 -11 21 -8 20
8 20 -23 -1 -124 -20 -99 -57 -203 -98 -278 -53 -95 -159 -166 -331 -220 -82
-26 -103 -29 -235 -28 -154 0 -217 11 -355 61 -188 70 -263 117 -316 199 -49
75 -67 79 -21 4 35 -56 32 -55 -63 9 -27 19 -64 45 -82 56 -120 82 -353 289
-395 351 -13 19 -27 34 -32 34 -10 0 28 -51 87 -116 86 -95 308 -274 469 -377
82 -53 186 -150 200 -187 10 -26 152 -147 243 -205 168 -109 356 -148 507
-105 15 5 28 7 28 5 0 -3 -35 -28 -77 -57 -388 -262 -813 -340 -1288 -237
-194 41 -433 139 -630 257 -63 37 -269 181 -301 210 -11 9 -40 34 -64 56 -61
52 -239 226 -327 319 -72 75 -221 290 -261 377 -12 25 -21 38 -22 29 0 -18 47
-117 67 -140 8 -9 13 -21 11 -26 -2 -5 22 -42 52 -81 30 -38 85 -117 123 -174
37 -56 88 -131 113 -166 l45 -62 -103 54 c-195 103 -356 149 -523 150 -197 1
-276 -31 -745 -310 -58 -34 -136 -77 -175 -95 -91 -42 -161 -88 -215 -138 -56
-52 -43 -53 24 -3 129 97 272 165 450 214 136 37 323 47 481 26 55 -7 125 -11
155 -8 l55 5 -75 7 c-41 4 -118 12 -170 18 -153 19 -336 4 -482 -40 -32 -9
-58 -16 -58 -15 0 4 374 217 427 244 146 73 290 99 434 76 85 -13 265 -76 386
-134 126 -62 124 -60 287 -229 71 -74 150 -123 195 -121 20 0 17 3 -16 13 -62
20 -103 49 -167 118 -83 91 -92 102 -79 94 8 -5 11 -2 7 7 -3 8 -15 20 -27 26
-23 13 -54 52 -152 191 l-59 85 139 -141 c250 -251 458 -407 723 -541 242
-123 547 -206 793 -216 53 -2 101 -7 108 -11 6 -4 11 -2 11 3 0 7 25 11 63 11
97 0 287 39 417 84 111 38 22 -7 -170 -87 -361 -149 -596 -225 -701 -225 -74
0 -187 -39 -327 -113 -63 -32 -120 -59 -128 -59 -8 0 -14 -4 -14 -9 0 -5 -17
-16 -37 -25 -21 -9 -78 -38 -126 -65 l-88 -48 -62 22 c-34 13 -89 35 -122 50
-33 14 -118 49 -190 76 -71 28 -132 53 -135 56 -5 5 72 -1 165 -13 57 -8 221
-39 358 -69 120 -26 184 -33 141 -15 -12 5 -42 12 -68 15 -25 4 -46 12 -46 17
0 5 -4 7 -9 4 -5 -4 -47 3 -93 14 -116 27 -315 58 -428 66 -107 7 -158 24
-613 207 -293 118 -278 101 -141 170 169 85 447 157 606 157 81 0 92 -3 244
-64 144 -58 255 -106 444 -193 117 -54 293 -121 375 -143 91 -24 235 -38 235
-23 0 6 -37 13 -82 16 -130 9 -300 66 -573 192 -130 61 -338 152 -365 160 -14
4 -53 23 -88 41 -35 19 -73 34 -85 34 -12 0 -76 18 -143 39 -206 66 -356 99
-476 103 -38 1 -68 4 -68 5 0 2 30 23 67 47 190 123 421 163 627 110 73 -19
86 -11 16 10 -49 15 -91 22 -184 30 -144 13 -353 -53 -509 -162 -27 -18 -83
-44 -124 -58 -109 -36 -199 -104 -274 -210 -18 -24 -36 -44 -41 -44 -4 0 -7
-3 -6 -7 1 -5 -10 -27 -25 -50 -15 -24 -27 -45 -27 -48 0 -3 -11 -23 -24 -44
l-24 -38 -120 5 c-104 4 -129 2 -192 -17 -59 -18 -81 -31 -121 -71 -35 -35
-49 -57 -49 -77 0 -26 1 -25 21 14 58 117 237 168 429 123 19 -4 47 -11 63
-14 l27 -6 -30 -53 c-17 -28 -50 -89 -72 -134 l-42 -82 -40 24 c-23 12 -52 26
-66 29 -14 4 2 -8 35 -26 35 -19 59 -40 58 -48 0 -8 -11 -52 -22 -96 -32 -125
-44 -230 -37 -326 7 -95 34 -199 53 -205 8 -3 6 15 -7 53 -29 83 -18 157 62
407 35 112 42 126 56 115 65 -53 97 -83 167 -153 44 -44 115 -123 159 -175
206 -248 322 -354 456 -414 53 -24 81 -30 150 -32 l85 -3 -70 9 c-87 10 -165
39 -246 92 -66 42 -220 191 -299 288 -25 30 -67 80 -95 110 -27 30 -65 73 -85
94 -28 31 -19 26 45 -25 44 -35 91 -74 105 -87 28 -26 217 -169 295 -223 136
-95 400 -236 525 -279 36 -13 68 -26 72 -29 4 -4 1 -18 -6 -33 -8 -14 -19 -42
-26 -62 -6 -20 -16 -38 -21 -42 -18 -11 -354 109 -475 170 -27 14 -59 23 -70
20 -10 -2 -80 16 -154 40 -143 48 -153 55 -43 32 98 -20 207 -31 200 -19 -3 5
-23 10 -44 11 -21 1 -58 6 -83 11 -25 6 -112 22 -195 37 -82 14 -183 39 -224
55 -41 16 -77 26 -80 24 -2 -3 1 -5 8 -5 7 0 9 -4 6 -10 -4 -6 1 -7 11 -3 10
4 15 2 11 -4 -3 -5 46 -26 116 -48 67 -21 168 -53 224 -71 56 -19 133 -42 170
-53 37 -11 120 -38 183 -61 90 -33 377 -134 433 -153 10 -3 -24 -91 -39 -100
-5 -3 -119 17 -254 44 -254 50 -458 83 -595 95 l-80 6 70 -56 c39 -31 79 -58
90 -61 11 -2 70 -14 130 -25 61 -12 194 -41 297 -66 103 -24 194 -44 203 -44
8 0 15 -4 15 -9 0 -8 -122 -35 -219 -47 -48 -6 -52 -8 -30 -16 38 -14 218 -56
274 -63 l51 -7 -24 -156 c-13 -87 -26 -159 -28 -161 -3 -3 -64 2 -137 10 -115
13 -144 21 -226 57 -52 23 -96 40 -98 39 -2 -2 18 -16 45 -31 l47 -27 -40 7
c-98 16 -400 85 -467 108 -163 54 -318 121 -408 177 l-35 21 25 -22 c27 -24
137 -83 210 -113 204 -83 367 -129 656 -186 110 -22 210 -44 224 -49 24 -9 23
-10 -14 -17 -22 -5 -117 -6 -210 -3 -112 4 -161 2 -141 -4 71 -22 263 -59 381
-73 71 -9 129 -17 129 -18 1 -1 11 -15 23 -31 21 -27 22 -39 22 -204 0 -96 2
-173 4 -171 3 3 6 58 7 124 1 66 4 135 6 153 l5 33 36 -43 c51 -60 191 -200
226 -225 l30 -21 -51 -25 c-82 -42 -225 -99 -231 -92 -3 3 -9 24 -13 48 -8 41
-8 41 -5 -10 l3 -53 -151 -49 c-154 -51 -414 -111 -566 -131 -47 -6 -86 -13
-88 -14 -4 -5 80 -14 233 -27 77 -6 233 -10 347 -7 114 2 205 1 202 -3 -8 -13
-288 -127 -364 -148 -171 -47 -177 -50 -145 -50 77 -2 340 90 514 180 63 33
120 59 128 59 30 0 215 66 309 110 l102 48 118 -59 c196 -96 389 -135 539
-109 42 7 78 11 81 8 3 -3 14 -47 24 -98 10 -51 31 -117 45 -147 34 -68 119
-161 176 -191 24 -13 35 -16 24 -8 -131 104 -170 201 -158 390 l6 103 55 27
c114 56 289 211 391 348 l42 56 37 -16 c46 -19 177 -22 211 -3 21 12 20 8 -10
-34 -163 -228 -204 -325 -204 -482 0 -87 2 -94 33 -138 l32 -46 -62 -62 c-79
-78 -122 -111 -228 -175 -111 -67 -128 -70 -182 -38 -48 29 -45 35 5 10 18 -9
29 -13 25 -9 -32 34 -863 437 -941 456 -73 18 -182 7 -252 -25 -69 -31 -89
-47 -121 -98 -14 -21 -29 -38 -35 -38 -15 0 -4 90 17 139 20 47 4 30 -41 -44
-68 -113 -67 -108 -88 -735 -1 -19 2 -80 6 -135 7 -88 12 -108 48 -178 22 -43
55 -100 73 -126 49 -70 63 -100 71 -159 6 -49 4 -57 -32 -120 -57 -98 -80
-158 -163 -432 -12 -41 -29 -88 -37 -103 -8 -15 -26 -85 -40 -155 -33 -155
-37 -378 -10 -500 22 -95 96 -322 106 -322 15 0 43 -72 32 -83 -24 -24 2 -287
39 -397 9 -30 18 -70 18 -88 0 -18 5 -47 10 -65 6 -18 13 -48 16 -68 8 -44 63
-111 120 -144 24 -14 51 -34 61 -45 10 -11 55 -32 99 -46 78 -25 87 -26 251
-20 94 3 258 9 365 12 107 4 206 8 220 10 14 1 116 3 228 3 173 1 202 3 202
16 0 16 -10 19 -25 7 -6 -4 -93 -5 -195 -4 l-185 4 83 24 c46 13 99 32 117 42
30 15 50 16 169 9 l135 -8 65 30 c35 17 66 31 68 31 2 0 5 -19 7 -41 3 -63 25
-99 61 -99 47 0 76 16 98 54 19 32 26 36 62 36 29 0 40 -4 40 -15 0 -28 78
-249 153 -432 86 -210 143 -321 234 -451 75 -108 93 -147 93 -202 0 -22 5 -40
10 -40 18 0 11 89 -11 132 -11 22 -49 81 -83 132 -60 86 -136 215 -136 229 0
4 6 6 12 5 9 -2 15 15 18 52 5 60 35 117 77 150 31 24 43 25 43 5 0 -8 10 -17
23 -20 12 -2 54 -12 92 -20 39 -8 111 -31 160 -49 50 -19 140 -50 202 -70 62
-19 156 -58 210 -86 55 -27 106 -50 115 -50 8 0 33 -14 54 -31 28 -22 47 -29
66 -27 16 3 28 0 28 -6 0 -15 -56 -239 -74 -298 -8 -27 -11 -48 -6 -48 21 0
89 253 116 432 9 62 20 117 25 122 4 5 4 17 -1 26 -9 17 2 119 15 140 9 14 60
-23 113 -82 24 -26 51 -49 60 -52 10 -4 23 -25 30 -49 21 -70 74 -186 122
-266 72 -119 84 -143 109 -209 l23 -62 44 0 43 0 -25 73 c-16 45 -23 83 -19
102 3 16 0 73 -7 127 -10 82 -10 101 3 124 8 15 62 66 121 113 109 88 124 111
91 137 -16 12 -16 15 -3 24 11 7 17 5 23 -9 10 -20 84 -41 146 -41 80 0 155
86 148 170 -2 25 -7 53 -11 62 -6 14 -1 18 31 24 21 4 63 16 93 27 30 11 84
28 120 38 69 18 76 28 57 84 -6 19 -2 20 81 20 l89 0 11 -80 c26 -175 11 -404
-38 -605 -24 -100 -35 -213 -26 -262 7 -37 69 -118 90 -118 8 0 -2 16 -21 37
-19 20 -39 48 -45 62 -16 42 -10 129 16 251 47 221 59 324 54 478 -4 101 -2
140 5 133 16 -16 65 -13 146 8 81 21 105 36 81 51 -13 8 -12 11 5 25 11 8 38
25 60 36 22 12 52 32 66 46 26 24 26 26 13 70 -8 25 -20 58 -27 73 -17 34 -9
46 64 101 57 42 111 58 133 40 23 -19 29 -77 11 -105 -22 -34 -140 -74 -167
-57 -10 6 -18 8 -18 3 0 -12 22 -32 37 -32 27 0 128 44 150 66 27 27 31 79 7
112 -8 12 -11 22 -5 22 5 0 17 8 26 17 14 14 20 14 37 4 35 -22 32 -3 -8 44
-21 26 -48 61 -59 79 -11 18 -43 58 -71 89 -28 31 -79 101 -113 155 -34 55
-69 106 -78 114 -9 7 -43 54 -74 103 -57 87 -58 90 -36 96 13 4 45 23 71 43
42 32 54 36 104 36 65 0 96 -15 167 -83 59 -57 271 -201 340 -232 48 -21 57
-30 84 -84 l31 -60 -30 -48 c-35 -55 -40 -124 -13 -176 17 -34 18 -33 28 25 5
32 25 53 153 166 81 72 174 157 207 191 48 49 70 64 115 77 63 18 132 59 175
104 17 17 45 40 63 52 51 31 83 96 92 186 4 42 14 119 21 170 9 69 9 101 1
128 -11 36 -11 36 64 114 130 135 273 336 352 495 94 187 94 270 2 370 -15 17
-31 38 -36 47 -17 32 -145 127 -163 120 -35 -13 16 43 90 100 74 57 96 69 84
46 -4 -7 18 12 48 43 195 202 376 516 463 804 50 163 65 262 71 458 8 264 -19
454 -106 735 l-10 33 27 -21 c99 -76 168 -115 272 -152 52 -19 106 -24 348
-28 28 -1 52 -5 52 -9 0 -3 7 -61 15 -128 32 -255 18 -498 -42 -738 -39 -157
-52 -187 -146 -332 -37 -57 -65 -103 -62 -103 2 0 25 29 51 65 25 36 48 64 51
62 8 -9 -95 -203 -157 -295 -70 -105 -103 -132 -114 -95 -3 11 -4 8 -3 -6 3
-36 21 -36 61 0 69 60 178 248 251 429 25 63 58 135 73 160 59 101 192 362
245 480 97 219 129 488 79 663 -12 43 -38 110 -57 150 l-36 72 72 -75 c93 -98
255 -341 330 -495 l59 -122 0 -153 c0 -84 2 -151 4 -149 5 5 15 121 16 189 l1
45 16 -45 c16 -49 24 -253 10 -305 -7 -27 -6 -28 7 -12 36 47 29 247 -14 377
-12 37 -21 102 -25 195 -10 215 -40 397 -85 521 -39 106 -131 238 -254 364
-69 71 -84 80 -272 173 -270 134 -459 249 -617 375 -53 43 -227 206 -227 213
0 3 34 -11 75 -32 114 -58 279 -111 361 -117 69 -4 169 11 179 28 3 4 -12 4
-33 -1 -58 -13 -180 -10 -251 6 -131 31 -340 134 -414 204 -82 77 -354 429
-443 573 -4 6 10 -1 32 -16 35 -25 34 -23 -12 20 -49 48 -51 52 -73 154 -23
105 -63 216 -102 279 -29 48 -35 31 -7 -21 54 -97 97 -245 118 -408 12 -87 5
-266 -11 -275 -4 -3 -11 -27 -15 -53 -7 -47 -36 -126 -56 -149 -10 -13 -59 24
-180 136 l-47 43 49 59 c27 32 56 75 66 94 9 19 20 32 25 30 4 -3 8 7 7 22 0
15 7 66 15 113 20 105 22 149 8 220 -6 30 -15 85 -20 121 -10 76 -64 217 -110
284 -22 33 -31 58 -31 88 0 61 -16 109 -55 167 -19 29 -35 54 -35 56 0 4 117
-69 141 -88 9 -7 48 -94 87 -193 269 -686 472 -1046 664 -1179 29 -20 100 -70
158 -112 112 -79 243 -148 300 -158 27 -5 23 -2 -17 13 -109 40 -212 105 -397
250 -244 190 -376 413 -661 1121 -48 118 -92 224 -97 234 -9 16 -8 18 8 11 11
-4 50 -15 88 -23 62 -15 85 -14 260 1 105 10 241 17 302 17 l112 0 53 -37
c150 -102 204 -150 241 -215 12 -21 25 -38 29 -38 12 0 56 -83 77 -144 13 -38
21 -52 24 -40 6 27 63 -93 84 -176 32 -127 2 -256 -89 -378 -51 -68 -41 -79
11 -13 89 112 128 252 104 374 -18 86 -108 268 -212 428 -28 41 -50 79 -50 83
0 4 15 -2 33 -13 59 -40 166 -91 188 -91 38 0 237 -160 240 -192 5 -43 -4
-165 -13 -175 -5 -7 -7 -16 -4 -21 8 -14 -32 -110 -82 -196 -94 -159 -290
-320 -399 -327 -15 -2 -39 1 -53 5 -24 7 -24 6 -6 -8 31 -25 81 -19 159 17
130 61 275 213 349 367 22 47 44 92 48 101 5 9 12 48 16 87 4 45 10 69 17 65
6 -4 7 4 3 23 -5 16 -9 36 -11 44 -9 41 -39 108 -72 164 -147 247 -394 391
-804 471 -101 20 -227 45 -279 57 -135 31 -296 113 -430 221 -147 118 -159
133 -166 198 l-5 54 45 -87 c25 -47 51 -90 57 -94 6 -4 10 -3 7 2 -2 5 -12 27
-22 48 -10 22 -38 80 -62 130 -26 52 -41 92 -35 94 6 2 9 8 6 12 -3 5 9 13 27
18 31 8 37 4 113 -62 202 -179 284 -231 360 -228 16 1 46 -6 65 -15 46 -22 92
-32 170 -38 76 -5 45 7 -58 24 -75 12 -154 47 -218 95 -26 20 -52 33 -58 29
-6 -3 -8 -3 -4 2 5 5 -14 32 -41 60 -47 49 -110 140 -124 177 -5 14 4 17 56
23 143 15 345 47 450 69 222 48 571 156 812 251 108 43 157 60 304 105 41 12
99 36 130 53 169 92 495 311 563 379 20 20 50 44 67 52 50 26 159 125 163 147
2 14 18 26 53 38 151 54 298 132 335 176 8 10 46 41 85 70 105 79 272 231 299
273 34 53 71 85 151 128 l70 39 123 -2 122 -2 0 104 0 103 -82 6 c-216 15
-383 18 -518 6 -180 -14 -478 -54 -619 -81 -220 -43 -750 -150 -861 -175 -63
-14 -124 -27 -135 -29 -11 -2 -92 -17 -180 -33 -594 -112 -983 -134 -1498 -86
-168 16 -230 32 -225 57 1 7 -5 26 -15 42 -9 17 -16 24 -17 18 0 -7 -6 -13
-14 -13 -9 0 -14 13 -14 38 -1 40 -18 80 -85 195 -38 66 -39 68 -21 83 11 9
12 12 4 8 -8 -4 1 10 21 32 34 39 36 45 43 135 6 85 4 102 -19 172 -29 90 -29
90 -12 82 6 -4 3 2 -9 12 -11 10 -28 31 -38 47 -13 20 -20 25 -26 16 -6 -9
-20 -10 -61 -1 -129 26 -162 31 -198 31 -33 0 -42 5 -66 40 -16 22 -65 65
-112 97 -47 31 -103 78 -126 105 l-40 48 -1693 0 c-1603 0 -1694 -1 -1702 -17z
m3735 -289 c-3 -3 -12 -4 -19 -1 -8 3 -5 6 6 6 11 1 17 -2 13 -5z m229 -873
c-104 -11 -195 -18 -202 -17 -29 4 -24 15 7 20 60 10 81 11 234 13 l150 2
-189 -18z m179 -23 c-11 -7 -26 -18 -34 -25 -7 -8 -16 -12 -19 -9 -7 8 40 45
58 45 10 0 9 -3 -5 -11z m-75 -2 c0 -3 -27 -21 -60 -41 l-59 -36 -88 17 c-79
16 -85 19 -58 27 48 14 265 41 265 33z m-4904 -79 c-5 -20 -11 -24 -28 -19
-43 10 -45 36 -4 52 27 10 40 -2 32 -33z m4599 13 c15 -6 7 -9 -28 -8 -29 1
-43 4 -35 9 16 11 37 10 63 -1z m53 -40 c-10 -6 -25 -7 -40 -1 -20 9 -18 10
17 10 31 0 36 -2 23 -9z m-3238 -340 c-8 -5 -19 -10 -25 -10 -5 0 -3 5 5 10 8
5 20 10 25 10 6 0 3 -5 -5 -10z m-75 -30 c-22 -10 -47 -19 -55 -19 -8 0 5 9
30 19 58 24 77 24 25 0z m-1315 -151 c-16 -30 -30 -49 -30 -42 0 13 52 104 57
99 2 -1 -10 -27 -27 -57z m68 -124 c-7 -21 -18 -40 -24 -42 -6 -2 -2 34 10 92
l21 96 3 -54 c2 -29 -3 -70 -10 -92z m-248 65 c0 -5 -8 -13 -17 -19 -15 -8
-16 -12 -5 -22 27 -28 10 -31 -19 -3 l-32 29 6 -45 c5 -36 4 -40 -4 -20 -16
39 -8 73 18 75 13 1 26 5 30 8 9 10 23 8 23 -3z m57 -34 c-7 -18 -47 -22 -47
-5 0 6 5 20 11 31 10 18 12 19 26 5 9 -9 13 -23 10 -31z m68 -69 c37 -65 30
-77 -10 -17 -38 57 -40 60 -25 60 5 0 21 -20 35 -43z m-97 -122 l0 -30 -8 30
c-4 17 -8 41 -8 55 l0 25 8 -25 c4 -14 8 -38 8 -55z m4947 -76 c4 -5 0 -18 -8
-27 -8 -9 -12 -23 -9 -31 3 -8 -1 -12 -9 -8 -8 2 -13 10 -11 16 1 6 -2 11 -8
11 -14 0 -12 37 3 43 21 9 36 7 42 -4z m-99 -37 c-3 -3 2 -11 12 -19 11 -10
12 -13 3 -11 -8 2 -21 14 -29 26 -13 20 -13 22 2 16 9 -4 14 -9 12 -12z m304
-147 c13 -14 21 -25 18 -25 -2 0 -15 11 -28 25 -13 14 -21 25 -18 25 2 0 15
-11 28 -25z m127 -193 c13 -8 47 -82 38 -82 -14 0 61 -125 124 -207 85 -109
220 -258 235 -258 19 -1 99 -59 86 -63 -22 -8 -102 31 -168 81 -72 54 -191
160 -299 263 -36 36 -68 63 -70 60 -2 -2 3 -11 12 -19 20 -20 20 -33 -1 -17
-8 8 -37 60 -64 117 -27 57 -54 103 -60 103 -6 0 -10 -3 -8 -7 2 -5 23 -46 46
-93 23 -46 40 -90 37 -98 -2 -7 4 -29 14 -50 18 -34 41 -137 55 -237 l5 -40
-25 28 c-13 16 -22 33 -19 38 4 5 1 9 -4 9 -22 0 -10 -39 24 -80 19 -23 35
-47 35 -53 0 -6 3 -8 6 -4 4 3 45 -27 93 -67 112 -96 238 -179 328 -216 71
-30 225 -74 293 -84 415 -62 687 -179 852 -367 50 -56 139 -190 132 -198 -1
-2 -20 13 -41 33 -141 133 -517 358 -617 369 -21 3 -42 11 -47 18 -6 10 -9 11
-9 2 0 -10 -33 -13 -132 -13 -73 0 -162 -5 -198 -10 -36 -5 -115 -12 -176 -16
-138 -8 -241 12 -276 55 -12 16 -22 21 -25 14 -5 -14 -76 27 -165 94 -135 103
-270 306 -310 467 -22 87 -22 89 -2 104 16 12 16 14 1 9 -14 -5 -16 -2 -13 16
14 65 16 101 6 85 -6 -9 -13 -38 -16 -65 -7 -47 -19 -73 -34 -73 -10 0 -35 62
-32 78 2 6 -4 12 -13 12 -19 0 -19 5 -1 75 8 30 18 93 22 139 l7 83 116 32
c64 17 125 32 136 35 36 7 110 6 122 -2z m-398 -109 c0 -21 -4 -60 -9 -88 l-7
-50 -2 56 c0 31 -4 71 -7 88 -5 24 -3 31 10 31 12 0 16 -9 15 -37z m-45 3 c9
-35 6 -318 -3 -352 -6 -23 -14 -30 -44 -35 -33 -5 -37 -3 -47 24 -7 21 -7 34
0 42 8 10 6 13 -6 11 -12 -1 -20 13 -30 50 -7 28 -31 91 -54 139 -22 49 -37
92 -33 96 7 7 158 43 199 48 7 0 15 -10 18 -23z m-389 -89 c15 -47 4 -215 -15
-227 -8 -5 -18 -6 -22 -4 -9 6 -82 -36 -75 -42 2 -2 22 3 45 12 50 20 76 13
66 -18 -4 -12 -18 -31 -33 -43 -14 -11 -34 -28 -43 -37 -10 -10 -28 -17 -40
-17 -18 1 -19 2 -5 6 16 4 16 6 -2 21 -10 9 -28 44 -39 77 -11 33 -30 82 -41
108 -15 35 -19 60 -15 90 12 89 7 85 81 92 38 3 77 10 88 14 29 12 39 5 50
-32z m-246 -24 c0 -34 -1 -36 -11 -16 -6 12 -8 29 -5 37 11 27 17 18 16 -21z
m-56 20 c6 -12 -23 -133 -33 -133 -5 0 -34 28 -65 63 l-57 62 64 6 c35 3 68 6
75 7 6 1 14 -1 16 -5z m-263 -53 c-30 -28 -58 -50 -63 -50 -4 0 5 18 19 40 23
34 56 55 94 59 3 0 -20 -22 -50 -49z m156 -47 c55 -85 56 -88 44 -124 -18 -52
-27 -66 -39 -54 -5 6 -39 57 -75 114 l-65 104 31 29 c16 15 34 26 39 23 4 -3
34 -45 65 -92z m-196 81 c0 -12 -65 -114 -73 -114 -4 0 -17 16 -28 35 -12 19
-25 35 -29 35 -15 0 -21 33 -8 42 15 9 138 11 138 2z m-295 -23 c11 -37 -73
-248 -103 -257 -9 -3 -26 -10 -37 -15 -15 -6 -13 -7 9 -2 25 5 28 3 23 -12
-17 -42 -108 -165 -174 -234 l-73 -76 20 50 c17 44 106 286 124 340 4 11 -20
-36 -53 -104 -34 -68 -75 -166 -92 -217 -37 -113 -53 -131 -68 -77 -25 86 -44
235 -43 341 0 62 -2 111 -4 109 -2 -2 -8 -44 -14 -93 -9 -87 -9 -87 -4 36 4
119 17 198 32 201 4 1 36 3 72 4 36 1 109 5 163 9 l98 6 -6 -22 c-5 -18 -4
-20 4 -8 10 13 11 13 12 0 0 -10 3 -8 8 5 7 18 38 31 83 34 9 0 19 -8 23 -18z
m136 -25 c30 -49 36 -96 14 -113 -34 -24 -44 -14 -70 68 -14 44 -25 81 -25 83
0 1 14 0 31 -2 21 -3 37 -14 50 -36z m1801 -30 c35 -58 24 -54 -21 10 -19 26
-28 45 -20 42 7 -2 26 -26 41 -52z m-2478 -34 c4 -43 9 -108 12 -147 13 -174
45 -388 69 -471 6 -19 2 -22 -40 -27 -26 -2 -62 -1 -80 4 -34 10 -27 0 -213
303 -30 49 -61 109 -69 133 -8 24 -18 41 -22 38 -8 -4 -74 123 -97 187 l-13
38 117 1 c122 2 212 6 218 11 1 2 27 4 57 5 l54 1 7 -76z m-815 52 c9 -8 -32
-173 -66 -264 -50 -136 -124 -275 -226 -428 -95 -143 -140 -200 -262 -332 -72
-78 -69 -75 34 25 247 241 450 590 517 890 16 70 19 76 25 50 4 -16 7 -74 8
-128 2 -188 -49 -344 -204 -617 -86 -152 -228 -301 -440 -459 -79 -60 -264
-185 -320 -217 -11 -6 -60 -35 -110 -64 -128 -75 -447 -238 -605 -311 -74 -33
-261 -112 -415 -174 -260 -105 -575 -247 -575 -259 0 -6 50 15 155 64 69 32
219 94 465 192 69 27 143 58 166 68 22 11 65 29 95 40 165 65 605 291 819 420
216 130 456 305 530 385 14 15 34 32 44 37 35 19 -41 -71 -163 -192 -119 -119
-210 -186 -341 -253 -79 -41 -62 -42 28 -1 198 88 402 280 585 550 40 60 86
127 101 149 94 135 181 371 193 521 8 98 2 233 -12 287 -8 30 8 38 20 10 40
-105 57 -425 31 -597 -9 -61 -18 -112 -21 -114 -2 -2 -8 11 -14 29 -8 31 -9
28 -10 -31 -3 -143 -60 -305 -165 -465 -151 -231 -331 -415 -541 -553 -98 -65
-359 -195 -363 -182 -2 5 -18 -1 -35 -14 -18 -13 -104 -48 -192 -79 -239 -83
-282 -96 -339 -103 -28 -4 -79 -19 -114 -35 -34 -15 -113 -43 -175 -63 -61
-19 -170 -53 -242 -75 -71 -23 -159 -47 -195 -55 -36 -7 -96 -29 -135 -48 -38
-20 -81 -39 -95 -43 -54 -15 -230 -90 -325 -137 -199 -100 -326 -184 -446
-298 -55 -52 -68 -59 -93 -55 -16 3 -31 7 -34 9 -13 13 143 277 210 356 217
254 537 486 803 581 33 12 89 30 125 40 63 19 64 19 16 13 -147 -18 -397 -136
-593 -281 -70 -51 -98 -63 -50 -21 32 28 2 12 -68 -37 -33 -23 -82 -54 -110
-67 -52 -27 -208 -80 -285 -97 l-45 -10 55 4 c48 3 51 3 22 -6 -77 -23 -290
-29 -462 -14 -70 7 -333 45 -338 49 -1 2 41 6 95 10 448 32 781 88 982 166 84
33 96 35 85 18 -8 -12 93 43 141 77 51 37 152 95 165 95 7 0 18 6 24 14 14 19
198 111 256 129 25 7 83 13 132 12 48 0 82 3 75 7 -9 6 -8 8 2 8 24 0 176 48
311 97 69 25 141 52 161 59 132 47 609 263 609 275 0 4 -34 -8 -76 -27 -42
-19 -79 -33 -81 -30 -3 2 16 13 40 24 138 61 320 192 441 316 203 208 324 408
415 682 39 116 65 260 43 239 -5 -5 -12 -31 -15 -57 -6 -48 -66 -253 -72 -246
-2 2 7 41 21 87 13 46 24 91 23 100 0 19 -2 15 -50 -102 -17 -43 -34 -76 -36
-73 -9 9 -41 180 -36 189 3 5 6 42 7 83 0 67 3 74 25 86 44 23 70 55 66 83 -1
16 3 29 12 32 12 5 12 7 1 14 -9 6 -3 9 17 9 17 1 82 11 145 24 79 16 135 22
180 18 36 -2 67 -6 69 -8z m860 -16 c-5 -18 -10 -49 -10 -68 l-1 -35 -8 30
c-4 17 -8 47 -9 68 -1 30 2 37 18 37 17 0 19 -4 10 -32z m1141 -32 c0 -30 3
-36 13 -28 9 8 19 -9 43 -74 17 -46 29 -84 26 -84 -12 0 -142 147 -142 161 0
9 6 22 14 28 8 7 17 24 21 38 9 37 25 11 25 -41z m-1784 18 c28 -68 39 -230
26 -401 -6 -87 -18 -178 -26 -203 -15 -46 -95 -231 -104 -240 -2 -3 -2 40 0
95 12 231 -12 607 -47 763 -5 21 -3 22 65 22 l71 0 15 -36z m151 -14 c7 -25
37 -94 67 -155 53 -106 66 -154 80 -290 2 -22 20 -129 40 -239 21 -109 36
-205 34 -213 -3 -14 -68 92 -110 177 -84 173 -146 340 -169 459 -8 43 -15 58
-19 46 -6 -18 -12 5 -41 165 -6 36 -15 72 -20 82 -8 15 -2 16 58 15 l67 -2 13
-45z m1373 -18 c18 -31 50 -83 70 -114 35 -52 37 -58 23 -77 l-14 -21 -32 22
c-18 13 -69 58 -114 102 l-83 79 53 37 c28 20 55 35 59 33 3 -1 21 -29 38 -61z
m620 -49 c0 -32 -1 -33 -40 -33 -39 0 -51 13 -32 36 5 5 14 29 21 54 l13 45
19 -35 c10 -19 18 -50 19 -67z m-973 30 c-3 -10 -5 -4 -5 12 0 17 2 24 5 18 2
-7 2 -21 0 -30z m-37 -48 c-7 -36 -16 -65 -20 -65 -5 0 -16 -3 -24 -6 -12 -5
-9 9 14 57 16 35 30 70 30 78 0 8 3 12 6 8 4 -3 1 -36 -6 -72z m287 -39 c20
-33 54 -87 76 -119 l41 -58 -22 -22 c-14 -13 -25 -18 -31 -12 -19 19 -121 232
-128 266 -6 31 -5 33 10 20 10 -7 34 -41 54 -75z m-117 35 c-14 -27 -27 -34
-36 -20 -4 7 1 18 11 26 27 19 37 16 25 -6z m1184 -52 c-2 -4 -13 -9 -24 -12
-22 -6 -26 15 -13 62 6 23 6 23 24 -10 9 -19 15 -37 13 -40z m-739 41 c10 -11
16 -20 13 -20 -3 0 -13 9 -23 20 -10 11 -16 20 -13 20 3 0 13 -9 23 -20z m425
10 c0 -6 10 -15 23 -20 16 -6 17 -9 5 -9 -9 -1 -24 6 -32 15 -19 18 -20 24 -6
24 6 0 10 -5 10 -10z m-432 -44 c44 -59 93 -109 99 -102 3 3 -13 26 -36 52
-23 26 -39 49 -37 52 6 5 107 -83 119 -104 5 -9 3 -14 -8 -14 -13 0 -13 -3 -3
-21 10 -17 10 -23 1 -26 -22 -8 -14 -21 8 -16 19 5 20 4 8 -16 -8 -11 -23 -21
-34 -21 -41 0 -113 53 -171 123 l-32 39 22 49 c11 27 23 48 26 48 3 0 20 -19
38 -43z m-350 -131 c30 -60 67 -131 84 -157 16 -26 27 -52 24 -57 -4 -5 4 -18
17 -28 13 -10 37 -39 55 -65 31 -46 95 -104 139 -127 41 -21 37 -11 -8 17 -47
30 -133 125 -122 136 3 3 1 6 -5 6 -6 0 -26 26 -45 58 -50 81 -119 212 -114
212 3 0 23 -28 45 -62 32 -50 106 -144 81 -103 -4 5 -16 26 -26 45 l-20 35 24
19 25 18 49 -48 c27 -26 51 -46 54 -43 2 3 -11 21 -30 39 -49 47 -44 58 8 17
48 -38 134 -77 169 -76 22 1 22 1 -3 8 -33 11 -193 129 -197 147 -5 20 13 17
56 -9 71 -43 154 -77 189 -77 18 0 24 -4 19 -15 -3 -8 -1 -15 4 -15 6 0 10 5
10 10 0 6 7 10 15 10 8 0 15 6 15 13 1 21 17 -16 23 -53 4 -19 9 -64 12 -100
8 -76 26 -123 59 -157 18 -17 26 -20 30 -11 5 10 7 10 12 1 4 -10 9 -10 20 1
20 21 18 24 -15 20 -24 -3 -31 2 -44 29 -26 55 -26 87 1 80 10 -2 24 2 31 10
12 15 51 12 51 -4 0 -5 8 -6 18 -3 10 4 13 3 6 -3 -6 -4 -13 -21 -16 -38 -3
-16 -7 -36 -9 -44 -2 -7 3 -16 11 -19 8 -2 12 -1 7 3 -4 5 0 16 8 25 8 8 21
32 29 52 l16 36 -33 7 c-59 12 -67 16 -67 35 0 34 71 55 98 28 6 -6 14 -9 17
-6 6 6 -10 171 -21 221 -8 33 8 36 51 6 17 -11 39 -24 51 -29 33 -13 57 -75
50 -129 -5 -36 -4 -43 6 -33 8 8 12 36 11 75 l-2 62 20 -39 c11 -21 19 -46 16
-55 -3 -9 -19 -63 -37 -121 -18 -58 -36 -134 -41 -170 -5 -36 -14 -66 -19 -68
-6 -2 -10 -19 -10 -38 0 -39 -12 -68 -43 -101 -11 -13 -18 -26 -14 -29 11 -11
29 8 49 52 10 24 23 44 28 44 4 0 16 24 25 53 10 28 24 59 31 68 8 8 14 20 14
26 0 5 14 51 31 102 17 51 28 97 26 104 -2 7 -9 -4 -15 -23 -6 -19 -11 -29
-11 -22 -2 21 -21 13 -21 -8 0 -27 -31 -152 -37 -147 -8 9 28 154 50 200 l23
47 15 -27 c10 -18 14 -57 13 -129 -2 -91 -5 -108 -29 -152 -15 -28 -25 -55
-21 -60 3 -5 -5 -17 -19 -26 -14 -9 -25 -21 -25 -27 0 -7 6 -6 18 2 15 13 16
12 4 -3 -8 -10 -19 -16 -25 -15 -6 1 -13 -7 -15 -18 -2 -11 -7 -24 -11 -28
-10 -10 -7 25 3 41 4 7 6 15 3 18 -2 2 -15 -11 -28 -30 -27 -39 -44 -50 -109
-71 -41 -12 -42 -14 -15 -14 17 -1 48 8 70 19 46 23 45 23 45 10 0 -6 -15 -20
-32 -31 -30 -19 -25 -20 15 -4 10 4 13 -4 10 -36 -9 -120 -135 -285 -308 -404
-32 -22 -77 -54 -100 -71 -53 -40 -268 -154 -290 -154 -9 0 -64 18 -122 40
-58 22 -109 37 -114 34 -5 -3 -9 0 -9 6 0 6 -4 8 -10 5 -5 -3 -10 -2 -10 2 0
5 -15 17 -32 28 -151 88 -345 288 -373 383 -6 21 -4 23 14 17 34 -10 24 8 -16
30 -20 11 -38 26 -41 32 -2 7 32 -11 75 -40 111 -75 226 -137 284 -152 69 -18
61 -4 -10 18 -137 43 -450 265 -532 377 -48 65 -59 87 -37 74 6 -4 -10 23 -36
60 -45 62 -46 66 -21 56 14 -5 51 -10 82 -10 54 0 55 -1 40 -18 -21 -23 -22
-33 -1 -25 25 9 32 -15 17 -59 -19 -55 -10 -58 18 -7 13 23 28 43 34 43 5 1
28 -34 51 -76 46 -86 99 -161 141 -199 15 -14 51 -50 79 -80 90 -96 110 -107
28 -14 -95 108 -150 185 -132 185 8 0 7 4 -4 10 -24 14 -72 96 -93 159 -15 47
-16 55 -2 68 13 13 15 10 22 -24 16 -85 123 -218 197 -242 37 -12 88 -1 88 18
0 6 7 8 15 5 9 -4 15 0 15 10 0 8 8 20 19 25 10 6 24 31 31 56 11 41 11 48 -4
63 -10 10 -16 12 -16 4 0 -21 -39 -13 -63 14 -24 28 -43 69 -27 59 6 -3 10 -1
10 6 0 8 14 10 44 7 39 -5 45 -3 50 16 10 35 7 79 -9 141 -19 73 -12 83 47 60
34 -13 53 -14 79 -7 31 9 32 10 8 11 -15 1 -40 8 -55 17 -28 15 -28 15 31 9
92 -10 97 -12 144 -75 24 -32 66 -80 94 -107 l49 -48 -40 54 c-43 57 -77 131
-61 131 6 0 -4 17 -20 38 -16 20 -64 98 -105 172 -71 128 -74 136 -58 154 16
18 17 18 27 -10 5 -16 34 -78 63 -139z m725 148 c-7 -2 -19 -2 -25 0 -7 3 -2
5 12 5 14 0 19 -2 13 -5z m-913 -32 c0 -9 -51 -34 -57 -27 -8 8 37 47 47 41 6
-4 10 -10 10 -14z m347 -68 c30 -21 39 -33 32 -40 -17 -17 -63 12 -85 52 -10
19 -21 35 -24 35 -3 0 -11 10 -19 23 -10 17 -6 15 20 -9 19 -17 53 -44 76 -61z
m993 60 c-1 -27 -1 -27 -15 -9 -14 19 -12 36 6 36 5 0 9 -12 9 -27z m-36 -14
c-3 -5 13 -45 35 -89 23 -44 41 -88 40 -98 0 -9 -9 1 -20 23 -28 59 -24 14 6
-75 14 -40 25 -77 25 -80 0 -4 -20 13 -45 38 -25 25 -48 43 -51 40 -3 -3 10
-21 29 -39 76 -76 81 -89 74 -208 -3 -58 -15 -142 -27 -186 -26 -102 -94 -240
-131 -268 -16 -11 -29 -26 -29 -32 0 -6 -14 -24 -30 -40 -25 -24 -33 -27 -40
-15 -6 9 -4 20 3 29 9 11 9 13 0 8 -14 -9 -19 8 -29 85 -5 45 -2 66 11 94 17
37 54 84 65 84 14 0 11 -149 -4 -184 -19 -45 -14 -46 12 -2 39 66 68 209 51
252 -5 14 -8 8 -8 -21 -2 -60 -12 -115 -23 -115 -12 0 -3 326 12 414 9 51 10
70 1 75 -16 10 -16 97 -1 212 10 81 15 97 33 105 24 11 50 7 41 -7z m-1403
-20 c-7 -20 -91 -99 -91 -86 0 18 57 100 74 107 27 10 29 8 17 -21z m109 8 c0
-7 -5 -18 -11 -24 -9 -9 -7 -11 7 -7 15 4 24 -5 41 -40 l22 -45 -22 -6 c-12
-4 -37 -13 -55 -22 -19 -8 -36 -12 -39 -9 -4 3 -10 32 -14 64 -8 54 -7 58 19
79 30 26 52 30 52 10z m1206 -43 c-3 -26 -6 -57 -6 -70 0 -40 -15 -27 -34 29
-22 66 -22 71 6 79 40 11 41 9 34 -38z m-72 -24 c5 -17 4 -20 -2 -10 -5 8 -13
26 -16 40 -5 17 -4 20 2 10 5 -8 13 -26 16 -40z m-649 -11 c52 -52 42 -55 -30
-11 -22 14 -41 26 -43 27 -5 4 10 35 17 35 4 0 29 -23 56 -51z m-645 -36 c-33
-59 -43 -69 -78 -81 l-32 -11 25 34 c24 31 93 95 102 95 2 0 -5 -17 -17 -37z
m-403 -25 c-2 -13 -4 -5 -4 17 -1 22 1 32 4 23 2 -10 2 -28 0 -40z m1717 20
c3 -13 1 -27 -3 -31 -11 -11 -35 29 -26 43 10 17 22 11 29 -12z m-3093 -193
l18 -90 -72 -68 c-40 -38 -85 -78 -100 -89 l-29 -20 31 53 c40 71 75 181 98
304 l18 100 9 -50 c4 -28 17 -90 27 -140z m2675 143 c-15 -21 -16 -22 -16 -2
0 11 6 26 12 32 19 19 22 -4 4 -30z m-627 -24 c18 -25 30 -48 27 -51 -6 -6
-146 35 -146 42 0 5 72 53 81 54 3 1 20 -20 38 -45z m-259 26 c0 -5 -5 -10
-11 -10 -5 0 -7 5 -4 10 3 6 8 10 11 10 2 0 4 -4 4 -10z m1327 -52 c-3 -8 -6
-5 -6 6 -1 11 2 17 5 13 3 -3 4 -12 1 -19z m-1730 -10 c-3 -8 -6 -5 -6 6 -1
11 2 17 5 13 3 -3 4 -12 1 -19z m-309 -75 c18 -29 30 -53 27 -53 -8 0 -65 92
-65 104 0 12 0 12 38 -51z m-1024 -48 c-4 -8 -10 -15 -14 -15 -14 0 -17 24 -7
48 11 23 11 23 19 3 4 -12 5 -28 2 -36z m1121 -150 c64 -95 129 -177 191 -240
51 -52 96 -95 100 -95 24 0 95 -59 104 -88 7 -17 30 -65 52 -105 22 -39 41
-79 41 -87 0 -8 10 -24 22 -35 12 -11 54 -67 93 -125 61 -89 172 -227 226
-280 108 -104 142 -131 216 -170 47 -24 126 -61 175 -81 134 -55 123 -85 -30
-83 -111 1 -234 55 -344 151 -27 23 -51 40 -54 37 -7 -8 -98 107 -141 179 -20
34 -42 81 -49 105 -11 40 -26 56 -28 30 0 -7 -45 77 -100 187 -54 110 -99 197
-99 194 0 -17 43 -126 87 -221 100 -211 200 -362 380 -572 52 -61 104 -124
116 -141 l22 -30 -28 18 c-16 11 -36 15 -48 12 -42 -14 -177 56 -198 103 -6
12 -17 22 -25 22 -31 0 -283 305 -386 466 -58 92 -120 215 -120 239 0 17 -18
57 -30 65 -12 8 -39 129 -51 230 -6 52 -13 97 -16 100 -11 10 7 -197 22 -255
9 -33 29 -94 45 -135 40 -104 110 -323 110 -344 0 -9 4 -15 8 -12 5 3 14 -12
21 -32 39 -109 167 -369 220 -446 17 -24 51 -65 77 -92 25 -27 83 -87 128
-134 95 -99 42 -62 -90 62 -45 43 -86 78 -91 77 -22 -4 -35 6 -88 69 -31 37
-65 77 -75 89 -91 108 -251 397 -234 424 2 5 -2 25 -11 45 -8 20 -24 80 -34
133 -11 53 -34 141 -51 196 -36 115 -78 300 -114 495 -36 198 -40 234 -28 226
5 -3 54 -71 107 -151z m-567 -4 c-2 -29 -7 -38 -15 -33 -10 6 -10 23 0 77 10
60 12 65 15 33 2 -21 2 -55 0 -77z m2985 -16 c37 -44 77 -99 88 -124 24 -56
36 -121 20 -121 -7 0 -7 -7 1 -25 9 -21 5 -46 -26 -153 l-37 -128 121 -123
122 -123 -7 -80 c-4 -45 -12 -99 -19 -121 l-12 -41 -39 60 c-22 32 -56 77 -75
99 -20 22 -49 58 -65 80 -16 22 -39 52 -52 66 l-24 26 21 48 c19 45 20 70 1
49 -5 -5 -28 -58 -52 -119 -24 -60 -47 -111 -51 -113 -5 -2 -8 -15 -8 -30 0
-14 -2 -23 -4 -21 -9 9 15 328 29 391 8 37 15 91 15 120 0 38 3 49 10 38 13
-20 13 -141 0 -177 -9 -26 -9 -27 5 -9 23 30 28 79 22 205 -6 117 -39 267 -73
332 -30 60 9 25 70 -61 33 -46 61 -79 63 -73 6 18 -41 104 -89 162 -103 128
-79 108 45 -34z m-3610 18 c-88 -168 -185 -298 -324 -434 -66 -65 -87 -78
-136 -92 -147 -42 -272 -30 -431 40 -39 17 -197 122 -232 155 -14 13 -42 38
-63 56 -55 47 -35 39 34 -14 237 -182 493 -223 708 -114 56 28 181 115 181
126 0 6 -11 0 -68 -38 -56 -39 -164 -91 -227 -111 -118 -37 -251 -26 -380 33
-61 29 -155 83 -188 110 -7 6 -49 39 -94 75 -45 35 -85 70 -89 77 -6 10 -4 10
7 2 114 -89 400 -174 583 -174 109 0 267 35 348 76 15 8 37 14 50 14 37 0 118
64 283 222 44 43 81 78 82 78 1 0 -19 -39 -44 -87z m3492 -31 c51 -126 73
-378 35 -402 -11 -7 -12 -10 -2 -10 11 0 12 -10 7 -42 -8 -45 -70 -273 -82
-298 -12 -24 -19 146 -11 270 14 215 6 409 -20 510 -33 126 18 106 73 -28z
m-93 22 c20 -74 22 -101 22 -444 1 -201 5 -378 9 -395 11 -42 -80 136 -110
215 -14 36 -34 97 -44 135 l-19 70 6 -55 c14 -118 81 -303 153 -420 26 -42 27
-47 10 -43 -11 3 -41 25 -67 48 -74 66 -136 208 -164 372 l-12 72 33 41 c71
88 130 260 146 423 4 38 9 67 11 64 2 -2 14 -39 26 -83z m-2475 50 c25 -5 36
-20 83 -112 30 -59 53 -117 51 -129 -1 -12 12 -65 28 -119 35 -110 31 -122
-28 -98 -99 40 -234 168 -278 262 -62 129 7 223 144 196z m-173 -50 c-34 -82
7 -186 119 -296 37 -38 64 -68 59 -68 -5 0 -17 9 -27 20 -32 35 -27 15 10 -40
20 -29 33 -55 31 -57 -3 -3 5 -23 16 -45 26 -50 25 -126 -2 -231 -29 -109 -34
-121 -74 -148 -41 -27 -45 -39 -15 -46 12 -4 18 -11 15 -20 -3 -8 -6 -19 -6
-24 0 -6 -5 -7 -10 -4 -6 4 -8 11 -5 16 4 5 1 9 -6 9 -7 0 -9 -10 -6 -27 3
-15 1 -37 -4 -50 -5 -13 -5 -23 0 -23 5 0 1 -21 -8 -47 -15 -42 -21 -48 -47
-51 -29 -3 -30 -2 -28 34 2 20 -1 44 -6 53 -7 11 -9 -1 -10 -42 0 -37 -4 -59
-13 -63 -23 -8 -92 22 -104 47 -16 31 -17 111 0 128 10 10 9 11 -6 5 -22 -8
-31 -44 -24 -94 5 -36 3 -39 -13 -30 -10 5 -28 22 -40 37 -19 24 -21 37 -17
90 3 38 1 63 -6 66 -22 7 26 37 61 37 22 0 32 4 25 8 -7 4 -29 6 -49 4 -27 -3
-40 -12 -54 -34 -27 -44 -34 -127 -16 -186 8 -28 12 -68 9 -89 -8 -59 10 -69
97 -54 38 6 77 11 87 11 25 -1 -44 -30 -71 -30 -12 0 -32 -7 -44 -16 -12 -8
-27 -12 -32 -9 -6 4 -27 -3 -48 -14 -36 -21 -36 -21 -13 -1 13 11 21 23 18 27
-9 8 -77 -45 -77 -59 0 -7 -12 -25 -27 -40 -23 -24 -35 -28 -80 -28 -41 0 -54
4 -62 19 -6 10 -23 21 -39 24 -37 8 -83 46 -106 89 -26 48 -11 75 89 159 47
40 85 77 85 82 0 6 -8 3 -17 -5 -10 -8 -27 -22 -38 -31 -11 -9 -40 -32 -64
-52 -46 -38 -67 -40 -35 -3 10 12 13 18 7 14 -8 -4 -13 -2 -13 5 0 8 -5 7 -17
-2 -15 -12 -16 -12 -9 6 5 11 12 32 16 46 11 36 37 84 55 103 17 17 71 20 115
6 24 -7 22 -10 -55 -86 -83 -81 -56 -70 39 16 29 28 56 50 60 50 3 0 34 -13
68 -30 34 -16 66 -30 70 -30 20 0 -5 19 -66 49 l-65 32 44 54 c56 69 120 179
149 255 22 59 36 69 36 24 0 -12 7 -29 15 -38 18 -17 59 -140 70 -206 7 -44
33 -106 40 -98 2 2 -2 22 -10 43 -8 22 -14 75 -15 119 0 68 2 77 15 66 10 -8
13 -21 8 -39 -17 -66 0 -84 71 -75 35 5 51 3 57 -7 7 -11 9 -10 9 4 0 19 -4
20 -75 21 l-50 1 2 34 c1 20 31 92 73 173 67 131 70 140 50 145 -18 5 -20 11
-15 57 5 48 4 49 -6 16 -6 -19 -26 -78 -45 -131 -37 -106 -39 -113 -23 -104 6
4 -2 -17 -16 -46 -27 -52 -27 -53 -40 -29 -7 14 -11 40 -8 60 15 119 29 183
54 262 35 107 35 108 7 108 -17 0 -19 -3 -10 -9 11 -7 8 -27 -17 -105 -17 -54
-37 -132 -44 -173 l-13 -76 -20 84 c-20 90 -24 199 -7 264 11 47 94 237 100
231 3 -2 -13 -50 -35 -105 -22 -56 -38 -101 -36 -101 8 0 43 80 73 165 17 50
34 96 36 104 3 8 8 12 10 9 3 -3 -2 -22 -11 -44z m796 -59 c0 -5 -5 -3 -10 5
-5 8 -10 20 -10 25 0 6 5 3 10 -5 5 -8 10 -19 10 -25z m-940 14 c0 -30 -68
-267 -96 -334 -29 -69 -24 -29 10 82 19 61 43 145 53 187 10 42 21 76 26 76 4
0 7 -5 7 -11z m1281 -116 c-7 -21 -20 -46 -29 -55 -16 -20 -57 -24 -67 -8 -3
6 -17 10 -30 10 -28 0 -65 43 -65 75 0 17 6 23 25 23 29 0 70 24 87 52 12 19
15 18 52 -20 40 -39 40 -40 27 -77z m-1276 0 c-7 -45 -24 -92 -25 -66 0 18 23
113 28 113 2 0 1 -21 -3 -47z m765 -33 c11 -6 20 -16 20 -23 -1 -16 -90 78
-90 95 0 7 11 -4 25 -24 14 -21 34 -42 45 -48z m1719 13 c-23 -68 -39 -89 -39
-51 0 21 45 108 56 108 2 0 -6 -26 -17 -57z m33 0 c-20 -31 -21 -29 -8 17 8
31 12 36 17 23 3 -10 -1 -28 -9 -40z m-2034 -38 c-3 -3 -9 2 -12 12 -6 14 -5
15 5 6 7 -7 10 -15 7 -18z m1936 -67 c-5 -55 -33 -153 -41 -145 -2 3 1 25 8
48 14 48 15 55 18 112 0 20 5 37 11 37 5 0 7 -22 4 -52z m-1499 -19 c17 -14
31 -31 33 -38 4 -18 -64 36 -84 67 -17 26 -17 27 2 12 10 -8 33 -26 49 -41z
m-1065 -121 c-23 -72 -37 -134 -33 -144 4 -12 3 -15 -5 -10 -8 5 -10 2 -6 -8
3 -9 1 -16 -4 -16 -6 0 -14 -10 -17 -22 -10 -34 -90 -160 -118 -186 -13 -13
-37 -27 -53 -32 l-29 -8 27 -1 c32 -1 86 43 129 106 40 57 110 201 139 283 13
36 26 69 30 73 4 4 10 -17 13 -48 9 -91 -52 -234 -166 -388 -53 -72 -61 -78
-85 -73 -15 4 -46 9 -70 13 -39 5 -45 3 -75 -29 -26 -28 -45 -72 -95 -224 -34
-104 -62 -193 -62 -197 0 -5 10 -6 23 -3 12 3 16 3 10 0 -41 -18 23 -64 112
-79 22 -4 47 -13 55 -20 8 -8 32 -16 53 -20 20 -4 37 -10 37 -13 0 -3 -41 -47
-91 -97 -49 -51 -100 -106 -112 -123 -12 -18 -27 -32 -33 -32 -6 0 -18 -8 -25
-17 -13 -15 -12 -16 9 -11 24 7 24 6 -19 -58 -43 -64 -85 -180 -116 -318 -24
-112 -29 -126 -48 -126 -60 0 -101 -68 -176 -285 -33 -99 -67 -194 -74 -212
-23 -54 -3 -46 22 9 14 30 21 41 18 24 -3 -15 -9 -41 -12 -58 -7 -35 -24 -45
-89 -53 -54 -7 -97 5 -131 37 -32 30 -29 48 18 93 99 97 92 153 -30 221 l-49
28 26 40 c14 23 27 42 28 44 1 2 23 -2 49 -9 38 -10 55 -9 82 0 37 14 123 68
135 85 13 19 38 113 38 143 0 37 -39 153 -51 153 -13 0 -11 -8 11 -68 11 -29
20 -65 19 -80 0 -16 -9 2 -23 48 -27 91 -46 132 -65 138 -16 5 -13 -24 13
-143 19 -85 20 -139 4 -152 -7 -6 -26 -13 -41 -15 -25 -5 -30 -1 -39 23 -10
30 -19 32 -126 33 -19 0 -25 9 -37 51 -30 107 -37 244 -14 271 7 9 7 14 1 14
-15 0 -30 -23 -35 -55 -3 -23 -4 -19 -6 15 0 25 6 72 14 103 19 72 19 70 -4
57 -29 -15 -54 -90 -48 -142 11 -91 29 -161 38 -147 5 8 9 11 9 8 1 -32 26
-132 41 -164 18 -37 18 -43 4 -91 -17 -58 -37 -84 -65 -84 -31 0 -51 -12 -60
-36 -13 -32 -4 -51 31 -68 16 -8 27 -11 24 -6 -3 5 5 12 18 15 18 5 40 -3 80
-29 96 -61 100 -94 23 -174 -30 -31 -77 -70 -105 -87 -28 -16 -51 -33 -51 -37
0 -15 26 -8 62 17 44 30 48 30 48 7 0 -10 9 -24 19 -31 19 -14 17 -17 -30 -70
-28 -31 -67 -82 -87 -113 -40 -63 -48 -68 -57 -40 -3 11 -17 24 -30 30 -17 8
-25 20 -25 36 0 13 -3 38 -6 56 l-7 32 -13 -23 c-7 -13 -14 -42 -14 -64 0 -22
-5 -47 -11 -55 -19 -27 0 96 26 165 28 75 18 89 -13 18 -43 -101 -57 -225 -32
-273 14 -26 5 -38 -65 -90 -56 -41 -158 -84 -223 -94 l-43 -6 50 93 c28 51 66
140 85 197 19 58 57 157 85 220 28 63 55 127 60 143 l10 28 46 -35 c44 -34 75
-38 75 -10 0 8 -4 14 -9 14 -13 0 -65 87 -85 141 -10 25 -23 79 -31 120 l-13
74 -1 -58 c-1 -87 44 -210 102 -274 29 -33 12 -28 -34 8 -21 17 -39 39 -39 50
0 11 -7 19 -18 19 -17 0 -66 67 -68 93 0 6 -2 32 -4 57 -2 40 -3 42 -9 16 l-6
-30 -13 28 c-6 15 -12 32 -12 37 0 15 -26 39 -34 32 -3 -4 -6 12 -6 35 0 24 7
47 16 57 23 22 99 59 166 80 31 10 55 22 52 27 -7 11 -30 4 -138 -43 -49 -22
-95 -47 -102 -57 -21 -28 -18 -131 6 -167 11 -16 20 -36 20 -43 0 -28 -248
-264 -369 -350 -24 -18 -40 -32 -34 -32 20 0 131 79 195 139 36 33 69 61 73
61 14 0 -21 -34 -120 -115 -121 -99 -207 -158 -215 -146 -3 5 -41 -12 -85 -38
-169 -99 -175 -102 -169 -86 9 23 -5 18 -40 -13 -37 -32 -169 -73 -311 -96
-140 -22 -195 -26 -195 -14 0 7 -6 6 -15 -2 -12 -10 -65 -12 -233 -7 -119 4
-233 10 -252 15 l-35 8 28 7 c27 7 195 75 649 260 114 47 230 99 257 115 27
17 67 34 88 38 21 4 49 13 63 21 24 13 23 14 -15 8 -34 -6 -10 13 170 133 116
76 241 164 278 196 38 31 70 56 73 56 8 0 -21 -56 -40 -79 -19 -22 -244 -218
-326 -284 l-35 -28 31 15 c105 51 421 332 681 606 97 102 180 186 183 188 4 1
10 -28 13 -66 4 -38 10 -83 13 -100 6 -28 4 -32 -14 -32 -28 0 -52 -10 -52
-22 0 -6 6 -8 13 -5 51 19 57 18 67 -7 7 -18 16 -26 32 -25 16 1 18 3 6 6 -12
3 -20 27 -32 96 -32 192 -36 170 57 269 l82 87 90 -14 c50 -8 91 -14 93 -15 2
0 2 8 0 17 -3 14 -11 17 -43 15 -36 -4 -38 -3 -25 14 9 11 10 15 3 10 -8 -4
-13 -2 -13 6 1 25 35 57 74 71 39 13 40 13 78 -24 21 -20 38 -43 38 -52 0 -21
23 -27 45 -11 25 18 51 18 59 -1 3 -8 12 -15 19 -15 9 0 17 -21 24 -57 11 -57
8 -89 -4 -45 -3 12 -6 22 -8 22 -10 0 -85 -78 -85 -88 0 -16 -61 -42 -109 -46
-40 -4 -47 -22 -16 -40 11 -6 23 -15 26 -19 10 -13 79 -27 140 -27 41 0 63 5
80 19 l24 19 -19 127 c-15 106 -16 129 -4 136 7 5 45 6 84 3 97 -9 170 9 188
45 16 31 40 154 34 173 -3 7 -12 -19 -22 -57 -22 -93 -35 -122 -54 -130 -28
-10 -138 -18 -165 -11 -23 5 -24 8 -14 35 7 19 24 36 49 47 46 21 74 49 58 59
-6 4 -62 -10 -125 -31 -62 -20 -121 -34 -129 -31 -25 10 -20 56 8 78 27 21 71
87 64 95 -3 2 -17 -14 -32 -36 -14 -22 -29 -40 -32 -40 -3 0 -3 3 -1 8 2 4 12
24 22 45 28 59 10 55 -21 -5 l-28 -53 -13 55 c-16 65 -4 116 34 152 22 21 35
23 140 25 63 1 117 4 120 7 9 9 -107 18 -172 14 -36 -2 -65 -2 -65 0 0 2 26
36 58 75 157 194 148 193 -23 -3 -65 -74 -192 -217 -283 -317 l-165 -183 -43
0 c-89 0 -124 -39 -124 -137 l0 -48 -251 -255 c-140 -142 -236 -234 -218 -207
18 26 53 66 78 89 26 24 41 43 34 45 -11 4 66 125 189 298 16 22 51 73 79 113
78 114 234 295 369 430 68 67 120 125 117 129 -13 12 -293 -282 -399 -417
-104 -134 -143 -189 -335 -469 -54 -78 -115 -156 -135 -173 -21 -16 -38 -27
-38 -24 0 4 37 86 82 184 l81 177 142 140 c188 186 360 378 444 497 18 26 47
52 65 59 53 21 302 145 332 166 16 11 49 33 74 50 25 17 48 32 52 33 13 3 104
86 194 175 131 131 239 276 333 447 14 26 27 46 28 44 1 -1 -15 -59 -37 -128z
m3328 17 c59 -120 74 -171 89 -310 l5 -50 -108 105 c-60 58 -109 105 -110 105
-1 0 13 45 32 100 18 55 34 111 34 125 0 34 12 19 58 -75z m1252 64 c17 -13
18 -17 5 -10 -33 17 -51 31 -40 31 6 0 21 -10 35 -21z m-4066 -50 c-8 -14 -24
-10 -24 6 0 9 6 12 15 9 8 -4 12 -10 9 -15z m2039 -78 c2 -25 -2 -50 -11 -62
-7 -11 -23 -43 -33 -72 -20 -51 -20 -51 -15 -12 13 92 43 201 53 191 1 -1 4
-21 6 -45z m-2217 1 c-25 -58 -58 -114 -62 -109 -3 3 1 16 10 29 8 12 20 44
26 70 8 31 16 45 25 42 11 -5 11 -11 1 -32z m-341 -33 c-13 -30 -22 -43 -19
-29 10 40 34 93 40 88 2 -3 -7 -30 -21 -59z m2602 -6 c-3 -10 -5 -4 -5 12 0
17 2 24 5 18 2 -7 2 -21 0 -30z m171 -217 c45 -114 8 -70 -49 58 -24 55 -45
92 -47 83 -2 -9 6 -38 18 -64 31 -69 6 -40 -34 42 l-35 70 37 32 37 31 21 -86
c11 -48 35 -123 52 -166z m-6786 179 c74 -11 138 -26 288 -68 l145 -41 -120
-17 c-295 -42 -481 -112 -683 -256 -42 -30 -91 -68 -107 -84 -29 -27 -32 -28
-67 -15 -21 7 -40 15 -44 18 -16 16 176 260 298 380 94 92 100 95 200 92 25
-1 66 -5 90 -9z m-317 -80 c-40 -41 -97 -104 -125 -139 -48 -59 -54 -64 -78
-55 -42 16 -43 19 -20 52 45 65 145 154 208 185 35 18 69 32 76 32 7 0 -20
-34 -61 -75z m6885 39 c0 -21 -4 -33 -10 -29 -29 18 25 -110 80 -190 l31 -45
-53 31 c-81 47 -93 62 -92 115 1 37 32 154 41 154 2 0 3 -16 3 -36z m40 -37
c0 -38 57 -142 103 -186 23 -23 37 -41 31 -41 -19 0 -94 71 -119 114 -28 48
-45 136 -26 136 6 0 11 -11 11 -23z m-1239 -129 c24 -35 35 -57 26 -49 -17 14
-80 111 -72 111 2 0 23 -28 46 -62z m1136 -10 c-3 -7 -5 -2 -5 12 0 14 2 19 5
13 2 -7 2 -19 0 -25z m750 -98 c21 -30 59 -82 86 -115 72 -89 74 -95 43 -152
-27 -48 -55 -83 -92 -115 -19 -16 -20 -16 -33 3 -10 17 -10 20 1 13 10 -6 10
-4 -1 9 -8 10 -48 88 -89 175 -82 173 -82 170 -37 277 l17 40 34 -40 c19 -22
51 -65 71 -95z m-4517 80 c-8 -5 -19 -10 -25 -10 -5 0 -3 5 5 10 8 5 20 10 25
10 6 0 3 -5 -5 -10z m3911 -78 c51 -29 56 -35 69 -84 7 -29 14 -62 15 -73 4
-28 31 -120 44 -142 5 -11 21 -64 35 -119 46 -182 46 -181 -35 -63 -125 179
-134 184 -54 28 122 -238 138 -280 137 -374 -2 -106 16 -287 30 -300 7 -7 9
-3 5 15 -13 54 -20 203 -10 197 6 -4 13 -30 16 -59 4 -29 19 -98 33 -153 29
-113 39 -239 38 -515 -1 -221 -43 -622 -89 -842 -15 -74 -66 -172 -133 -258
-76 -97 -155 -168 -138 -125 43 114 126 563 126 686 0 20 7 53 15 72 19 46 18
62 -1 22 -14 -30 -14 -30 -13 25 1 104 -4 105 -11 3 -6 -88 -12 -113 -43 -177
-38 -80 -158 -279 -188 -310 -17 -18 -18 -18 -32 16 -8 19 -26 53 -41 77 l-27
42 40 118 c101 297 177 676 206 1021 4 41 11 107 16 145 29 222 21 519 -20
747 -9 53 -13 94 -8 91 4 -3 4 3 -3 13 -6 11 -30 92 -53 181 l-43 162 30 -18
c17 -10 56 -32 87 -49z m-7180 33 l30 -16 -44 -57 c-24 -31 -49 -67 -56 -79
-7 -14 -21 -23 -34 -23 -49 0 -48 13 9 103 31 48 58 87 60 87 3 0 18 -7 35
-15z m5999 -70 c0 -4 -9 4 -20 18 -11 14 -20 28 -20 32 0 4 9 -4 20 -18 11
-14 20 -28 20 -32z m-644 19 c9 -14 28 -55 40 -92 26 -74 62 -149 82 -170 6
-7 12 -20 12 -28 0 -8 4 -14 8 -14 5 0 14 -12 21 -27 7 -15 37 -60 67 -100 59
-78 64 -89 35 -74 -10 6 -29 31 -41 56 -33 69 -36 46 -5 -40 17 -46 33 -74 40
-71 10 4 75 -82 75 -100 0 -4 8 -13 18 -20 19 -15 19 -15 -58 -19 -25 -2 -53
-3 -62 -4 -12 -1 -18 -9 -18 -24 0 -13 -10 -32 -21 -43 l-22 -19 7 29 c10 41
47 116 57 116 5 0 9 7 9 15 0 46 -55 -30 -80 -110 -7 -22 -15 -44 -19 -50 -5
-9 -37 -197 -46 -275 -8 -70 -17 -105 -30 -120 -7 -8 -19 -27 -26 -42 -14 -26
-15 -25 -92 125 -43 84 -78 159 -77 167 0 9 -4 20 -9 25 -5 6 -27 62 -49 125
-22 63 -49 133 -60 155 -30 60 -29 65 12 128 39 57 67 75 110 68 10 -1 15 2
12 7 -4 6 -2 13 4 17 5 3 10 1 10 -6 0 -7 3 -9 6 -6 4 4 2 13 -5 20 -9 11 -7
20 9 38 l21 24 -17 -30 -16 -30 19 24 c12 14 19 36 18 52 -1 16 0 29 4 29 10
0 7 64 -4 72 -6 5 -5 8 3 8 9 0 10 5 3 17 -5 10 -5 26 0 39 7 21 4 24 -49 34
-31 6 -61 13 -67 15 -13 4 124 135 141 135 8 0 21 -12 30 -26z m1682 -105 c-5
-15 -37 -75 -72 -133 -62 -105 -63 -106 -75 -80 -10 23 -9 30 7 48 40 43 70
119 107 271 8 29 8 29 25 -25 11 -38 14 -63 8 -81z m302 111 c9 0 25 -9 35
-20 l19 -21 -44 19 c-24 10 -46 25 -48 33 -4 11 -2 12 9 2 7 -7 20 -13 29 -13z
m-798 -22 c-5 -5 -16 -10 -23 -11 -8 -2 -21 -6 -29 -11 -8 -4 -2 4 13 18 16
15 33 23 39 20 6 -4 6 -10 0 -16z m-412 -18 c0 -5 -4 -10 -10 -10 -5 0 -10 5
-10 10 0 6 5 10 10 10 6 0 10 -4 10 -10z m1240 -11 c17 -13 18 -17 5 -10 -33
17 -51 31 -40 31 6 0 21 -10 35 -21z m270 -26 c0 -6 -8 -9 -21 -6 -12 4 -18
11 -15 20 3 8 6 20 6 26 0 14 29 -24 30 -40z m-282 -23 c23 -18 42 -41 42 -50
0 -10 6 -23 14 -29 32 -27 39 -178 12 -242 -9 -21 -14 -61 -16 -124 -2 -47 -3
-44 -29 60 -15 61 -39 142 -54 180 -32 85 -45 155 -39 213 3 30 8 40 16 34 6
-5 30 -24 54 -42z m-6912 -87 c134 -70 242 -128 240 -131 -7 -6 -182 18 -286
40 -97 20 -263 68 -321 92 l-31 13 68 56 c38 31 73 57 78 57 5 0 119 -57 252
-127z m7112 102 c-3 -3 -9 2 -12 12 -6 14 -5 15 5 6 7 -7 10 -15 7 -18z m32
15 c0 -5 -2 -10 -4 -10 -3 0 -8 5 -11 10 -3 6 -1 10 4 10 6 0 11 -4 11 -10z
m-60 -16 c0 -2 -7 -4 -15 -4 -8 0 -15 4 -15 10 0 5 7 7 15 4 8 -4 15 -8 15
-10z m-60 -4 c0 -5 -7 -10 -16 -10 -8 0 -12 5 -9 10 3 6 10 10 16 10 5 0 9 -4
9 -10z m-1020 -20 c0 -5 -4 -10 -10 -10 -5 0 -10 5 -10 10 0 6 5 10 10 10 6 0
10 -4 10 -10z m1164 -16 c31 -12 16 -32 -30 -39 -85 -12 -77 29 8 44 3 0 13
-2 22 -5z m561 -24 c24 -47 181 -266 264 -368 42 -52 83 -103 91 -114 31 -44
280 -288 370 -363 136 -113 310 -224 505 -322 305 -153 351 -181 421 -258 123
-137 144 -166 193 -262 74 -147 101 -281 116 -573 l5 -105 -48 90 c-112 206
-201 343 -297 455 -56 65 -167 163 -204 180 -14 7 -34 16 -43 21 -10 5 -26 9
-35 9 -10 -1 5 -12 34 -26 69 -33 107 -79 161 -192 127 -269 84 -571 -143
-1007 -31 -61 -71 -136 -87 -168 -35 -66 -44 -70 -23 -10 8 23 25 95 37 160
19 101 22 151 22 348 0 198 -11 357 -30 426 -3 11 12 22 53 39 62 26 163 116
163 146 0 10 -10 2 -26 -22 -15 -21 -34 -45 -43 -52 -22 -18 -142 -74 -148
-69 -2 3 -13 41 -23 85 -53 222 -143 417 -270 582 -77 101 -141 180 -146 180
-6 0 12 -26 106 -155 77 -106 88 -128 98 -215 8 -62 -7 -223 -22 -237 -3 -4
-6 23 -6 58 0 164 -91 383 -244 584 -66 88 -244 285 -256 285 -18 0 23 -61 61
-91 99 -78 290 -344 348 -483 64 -154 83 -273 66 -422 -6 -55 -5 -58 10 -39
36 45 60 155 60 276 0 114 0 116 17 88 75 -123 121 -252 172 -480 7 -31 -4
-38 -77 -46 -41 -5 -58 0 -121 31 -258 129 -530 389 -734 701 -75 116 -212
345 -212 356 0 21 -72 139 -81 134 -5 -4 -6 1 -3 9 3 8 -15 45 -40 83 -25 37
-50 88 -55 113 -12 56 -38 118 -61 147 -17 22 -16 24 21 98 22 42 39 84 39 93
0 10 9 5 28 -18 15 -18 54 -65 88 -104 34 -39 66 -81 73 -93 6 -13 15 -22 20
-20 4 1 48 -37 97 -85 49 -48 105 -100 126 -115 20 -15 58 -52 84 -81 29 -33
53 -51 62 -47 8 3 46 -15 86 -39 39 -24 127 -74 196 -111 183 -99 241 -141
390 -278 125 -115 144 -132 120 -103 -14 16 -69 73 -123 127 -124 124 -238
202 -470 323 -184 96 -314 192 -478 356 -85 85 -113 120 -144 183 -22 43 -43
81 -47 83 -8 5 0 -23 12 -41 12 -19 31 -70 23 -60 -5 6 -38 42 -72 82 l-62 71
9 77 c4 43 7 111 6 151 -2 41 -1 74 1 74 3 0 11 -13 20 -30z m-439 -138 c-3
-3 -6 0 -6 7 0 7 -13 24 -29 39 -20 19 -31 40 -35 72 -6 45 -6 45 34 -34 23
-43 39 -81 36 -84z m-685 125 c-10 -9 -11 -8 -5 6 3 10 9 15 12 12 3 -3 0 -11
-7 -18z m-7080 -8 l38 -12 -70 -83 c-39 -45 -82 -105 -98 -133 -25 -46 -29
-50 -45 -38 -17 13 -16 19 26 103 48 96 94 174 104 174 4 0 24 -5 45 -11z
m7080 -100 c-38 -159 -89 -275 -129 -298 -10 -7 -12 -11 -4 -11 11 0 -10 -35
-48 -83 -4 -4 4 23 16 60 17 49 24 91 24 149 l0 80 45 53 c25 30 60 74 76 98
17 24 33 42 36 40 2 -3 -5 -42 -16 -88z m549 79 c0 -29 17 -41 39 -29 17 9 21
9 21 -2 0 -10 -16 -16 -47 -20 -27 -3 -49 -4 -49 -4 -1 1 -5 17 -9 35 -6 30
-5 32 19 32 14 0 26 -6 26 -12z m-7192 -107 c57 -11 155 -26 218 -32 l116 -11
191 -93 c106 -51 250 -116 321 -144 l129 -52 51 15 c28 8 52 13 54 11 5 -5
-143 -49 -229 -69 -123 -28 -360 -61 -579 -81 -301 -27 -302 -27 -390 -6 -78
18 -103 13 -30 -7 19 -5 34 -14 32 -21 -1 -7 16 -11 47 -11 27 0 81 -7 119
-15 225 -47 558 -69 695 -46 121 21 262 70 347 122 44 26 80 47 80 45 0 -2
-36 -39 -81 -82 -151 -146 -270 -307 -343 -461 l-29 -61 -83 29 c-162 56 -413
195 -593 327 -73 54 -311 241 -321 253 -6 6 -222 173 -264 204 -27 20 -28 21
-13 61 15 44 62 108 134 185 l44 46 138 -43 c76 -24 183 -52 239 -63z m6127
99 c3 -5 -1 -10 -10 -10 -9 0 -13 5 -10 10 3 6 8 10 10 10 2 0 7 -4 10 -10z
m-769 -61 c19 -22 19 -22 -3 -10 -13 6 -23 16 -23 21 0 15 5 12 26 -11z m1099
1 c3 -5 2 -10 -4 -10 -5 0 -13 5 -16 10 -3 6 -2 10 4 10 5 0 13 -4 16 -10z
m761 -5 c-31 -16 -86 -21 -70 -6 11 11 39 18 74 20 25 1 25 1 -4 -14z m-1926
-35 c41 -27 86 -40 99 -27 8 8 29 -8 76 -57 36 -37 65 -72 65 -77 0 -6 4 -8 8
-5 5 3 24 -11 43 -30 37 -38 72 -59 119 -69 16 -4 30 -10 30 -14 0 -14 -23
-29 -37 -24 -8 3 -26 -3 -41 -14 -50 -36 -55 -38 -47 -13 8 26 -3 112 -14 106
-4 -3 -8 -37 -9 -76 -1 -40 -7 -80 -12 -90 -13 -24 -13 -33 0 -25 6 3 10 -3
10 -15 0 -28 -10 -21 -84 58 -110 116 -133 152 -249 386 -10 20 -6 19 43 -14z
m1140 20 c0 -5 -2 -10 -4 -10 -3 0 -8 5 -11 10 -3 6 -1 10 4 10 6 0 11 -4 11
-10z m861 -77 c31 -49 15 -40 -20 13 -17 25 -28 50 -24 56 4 7 10 2 15 -12 5
-13 18 -39 29 -57z m51 18 c26 -43 33 -62 25 -70 -8 -8 -6 -11 6 -11 19 0 183
-134 231 -188 63 -71 85 -111 90 -159 3 -26 9 -66 15 -88 11 -43 12 -162 2
-265 l-6 -65 -19 75 c-32 133 -126 335 -202 435 -12 17 -44 77 -71 135 -28 58
-71 137 -96 175 -34 50 -43 71 -34 77 19 12 20 11 59 -51z m-127 39 c3 -5 2
-10 -4 -10 -5 0 -12 -8 -14 -17 -3 -11 -5 -7 -6 10 -1 27 12 36 24 17z m-65
-10 c0 -5 -4 -10 -10 -10 -5 0 -10 5 -10 10 0 6 5 10 10 10 6 0 10 -4 10 -10z
m144 -95 c38 -59 108 -201 173 -350 40 -93 52 -129 58 -182 3 -21 12 -63 20
-93 11 -39 13 -77 9 -135 -8 -101 -19 -123 -29 -59 -10 68 -50 192 -76 234
-17 28 -22 48 -20 98 3 84 -10 187 -19 152 -6 -21 -9 -14 -19 35 -17 82 -49
187 -62 205 -8 12 -9 10 -5 -10 4 -14 15 -61 26 -106 64 -260 66 -459 7 -649
l-22 -70 -6 150 c-6 161 -26 305 -41 305 -6 0 -7 -12 -3 -27 13 -51 25 -197
24 -293 -1 -117 -5 -107 -59 160 -46 225 -67 313 -69 285 0 -11 6 -49 14 -85
19 -86 18 -96 -4 -35 -14 39 -18 85 -19 205 -2 162 7 233 19 150 l6 -45 1 53
c2 50 15 89 37 104 5 4 9 23 9 42 0 20 2 32 6 28 3 -4 22 -34 44 -67z m-2894
61 c0 -3 -4 -8 -10 -11 -5 -3 -10 -1 -10 4 0 6 5 11 10 11 6 0 10 -2 10 -4z
m1408 -107 c25 -16 77 -39 115 -51 l69 -22 -7 -46 c-4 -25 -8 -46 -9 -47 -1
-1 -24 5 -51 13 -42 13 -58 25 -98 77 -26 34 -71 89 -100 122 -51 59 -51 60
-9 22 24 -21 65 -52 90 -68z m-2720 64 c-8 -10 -24 -29 -34 -42 -114 -145
-464 -521 -486 -521 -9 0 175 364 223 440 25 40 36 49 96 69 37 13 95 33 128
46 78 29 93 31 73 8z m619 -15 c-3 -7 -5 -2 -5 12 0 14 2 19 5 13 2 -7 2 -19
0 -25z m72 -1 c12 -15 12 -17 -3 -11 -9 3 -16 13 -16 22 0 8 1 13 3 11 1 -2 9
-12 16 -22z m547 8 c-21 -22 -81 -46 -148 -60 -54 -12 -57 -11 -48 6 11 19 22
23 84 34 22 4 49 13 60 21 11 8 31 14 44 14 21 0 22 -2 8 -15z m2109 -31 c-34
-45 -28 -53 10 -14 16 17 33 30 38 30 11 0 1 -107 -15 -162 -6 -21 -17 -38
-24 -38 -13 0 -24 -22 -24 -48 0 -8 -9 -25 -20 -37 -13 -13 -23 -46 -30 -92
-5 -39 -14 -83 -20 -97 -5 -15 -19 -63 -31 -109 -39 -153 -97 -238 -194 -283
-28 -14 -70 -24 -95 -24 -37 -1 -42 -3 -27 -11 10 -6 34 -9 53 -7 l34 4 -27
-22 c-30 -24 -99 -37 -141 -28 -29 6 -82 25 -82 29 0 1 11 27 24 56 13 30 29
78 36 107 8 28 17 52 22 52 4 0 8 -4 8 -10 0 -5 7 -10 15 -10 19 0 19 9 1 29
-10 13 -12 42 -7 139 l6 124 24 -26 c34 -36 39 -104 12 -156 -21 -41 -16 -53
11 -22 24 26 36 83 25 115 -7 21 -6 36 3 53 11 20 11 27 -4 43 -15 16 -18 39
-18 133 -1 62 2 128 6 146 7 31 10 32 54 32 26 0 63 4 81 10 19 5 36 8 38 6 7
-7 24 -165 24 -226 0 -99 -51 -250 -100 -294 -12 -11 -21 -27 -21 -37 0 -23
-97 -108 -132 -116 -16 -3 -28 -10 -28 -15 0 -16 49 1 94 32 50 34 72 58 119
130 20 30 61 81 92 112 48 50 73 91 45 73 -6 -3 -14 4 -19 17 -13 35 -41 216
-44 283 l-2 60 75 5 c82 5 112 20 145 70 11 16 24 30 29 30 4 0 -4 -16 -19
-36z m-3079 -38 c-8 -19 -20 -69 -27 -110 -7 -42 -17 -76 -23 -76 -5 0 -18 7
-28 17 -17 15 -18 15 -18 -3 0 -14 -14 -24 -51 -37 -44 -16 -53 -24 -70 -63
-18 -40 -23 -44 -56 -44 l-35 0 89 98 c49 53 119 132 157 175 38 42 70 77 72
77 3 0 -2 -15 -10 -34z m-3966 -1 c9 -11 4 -40 -29 -142 -22 -70 -47 -155 -56
-188 l-15 -60 5 100 c6 109 24 210 49 268 16 40 27 45 46 22z m7728 -46 c1 13
5 22 8 19 3 -4 6 -94 7 -202 l2 -195 -48 97 -47 97 21 85 c11 47 25 93 30 102
5 10 10 28 11 40 0 13 4 3 8 -22 4 -25 8 -34 8 -21z m-3008 37 c0 -2 -7 -7
-16 -10 -8 -3 -12 -2 -9 4 6 10 25 14 25 6z m-100 -66 c-29 -41 -33 -42 -87
-29 l-47 12 64 13 c35 8 68 18 74 24 19 19 17 10 -4 -20z m1304 -61 c43 -43
60 -55 69 -46 1 1 16 -12 32 -29 17 -17 64 -61 105 -99 79 -72 79 -71 59 -148
-9 -35 -13 -38 -36 -32 -19 4 -24 3 -20 -7 3 -8 -1 -24 -8 -37 l-12 -24 -25
34 c-35 46 -102 183 -128 258 -13 39 -34 75 -58 99 -20 21 -45 53 -56 71 l-18
33 23 -12 c13 -7 46 -35 73 -61z m-4094 26 c-7 -8 -18 -15 -24 -15 -6 0 -2 7
8 15 25 19 32 19 16 0z m4755 -120 c2 -66 1 -65 -57 36 l-27 47 42 -13 41 -12
1 -58z m-295 42 c-23 -38 -37 -117 -22 -117 6 0 13 18 17 41 7 39 8 40 26 23
23 -21 31 -62 27 -137 l-3 -58 -66 64 c-54 52 -67 71 -71 101 -4 34 0 41 40
77 57 50 79 52 52 6z m37 -2 c0 -8 -7 -15 -15 -15 -12 0 -12 3 -2 15 7 8 13
15 15 15 1 0 2 -7 2 -15z m-1803 -17 c-13 -24 -47 -58 -58 -58 -5 0 5 16 24
35 35 37 46 44 34 23z m696 -128 c88 -127 122 -171 128 -166 3 4 0 12 -6 18
-16 16 -15 25 4 32 22 8 64 -20 64 -42 0 -10 12 -35 26 -56 14 -21 41 -71 60
-112 37 -82 99 -184 112 -184 10 0 62 171 62 204 0 31 14 40 40 26 21 -11 60
-79 60 -105 0 -9 11 -31 25 -49 13 -18 30 -55 36 -84 11 -45 10 -54 -5 -71
-16 -18 -15 -20 30 -59 26 -22 60 -43 76 -46 15 -3 28 -9 28 -13 0 -5 -37 -20
-83 -34 -157 -51 -196 -70 -251 -120 -49 -44 -55 -48 -61 -30 -9 29 -70 79
-110 90 -43 11 -140 94 -102 87 63 -13 87 -15 92 -7 3 5 -14 12 -37 16 -57 9
-139 46 -199 91 -94 69 -299 316 -299 362 0 8 152 215 179 245 4 4 22 -30 40
-75 83 -207 199 -395 264 -430 16 -8 14 -3 -8 19 -46 46 -82 119 -165 342 -58
154 -75 209 -67 219 9 11 13 11 21 -2 6 -8 27 -38 46 -66z m725 51 c13 -52
115 -249 138 -267 13 -11 27 -31 30 -46 5 -19 16 -28 37 -33 36 -8 37 -18 5
-97 -30 -74 -31 -99 -5 -116 23 -14 26 -6 6 17 -12 14 -10 27 17 94 35 88 31
106 -22 121 -36 10 -39 19 -10 39 11 9 16 16 9 19 -17 5 0 38 20 38 24 0 31
12 45 72 l10 48 50 -35 c27 -20 53 -41 57 -48 11 -17 9 -169 -3 -252 -9 -62
-13 -90 -18 -131 -1 -8 -28 -11 -80 -10 -45 0 -76 5 -73 10 3 5 -2 7 -11 3
-11 -4 -36 24 -96 111 -44 64 -99 137 -122 162 -22 25 -49 63 -58 85 -16 35
-55 90 -104 146 -13 15 -11 20 16 48 21 20 26 31 17 31 -12 0 -12 2 -2 9 7 4
42 8 77 8 60 0 64 -2 70 -26z m-3021 -23 c-24 -40 -123 -156 -191 -222 -81
-81 -238 -205 -317 -251 -71 -42 -243 -104 -331 -120 -153 -27 -561 -5 -633
34 -12 7 50 73 128 136 122 99 370 232 610 328 l115 46 210 4 c185 4 221 7
300 29 109 30 118 32 109 16z m-1369 -23 c-16 -8 -37 -14 -45 -14 -8 0 1 7 20
14 46 18 64 17 25 0z m2037 -22 c-11 -16 -39 -46 -61 -68 l-41 -39 0 38 c0 38
14 75 34 88 6 4 28 8 49 8 l38 0 -19 -27z m3233 -89 c-14 -19 -27 -34 -28 -34
-2 0 4 29 13 65 l15 65 13 -31 c12 -28 11 -34 -13 -65z m-2414 66 c-13 -11
-30 -20 -38 -20 -23 0 -9 24 18 31 41 12 45 9 20 -11z m962 -10 c3 -11 1 -23
-4 -26 -5 -3 -9 6 -9 20 0 31 6 34 13 6z m-793 -10 c11 -7 7 -10 -17 -10 -18
0 -33 5 -33 10 0 13 30 13 50 0z m3040 -15 c0 -8 -4 -15 -10 -15 -5 0 -10 7
-10 15 0 8 5 15 10 15 6 0 10 -7 10 -15z m-384 -167 c-10 -247 -32 -399 -77
-538 -37 -113 -91 -255 -101 -265 -18 -19 3 109 27 158 19 40 20 47 6 43 -9
-4 -4 4 10 17 24 22 25 26 13 49 -16 31 -94 84 -135 93 -29 7 -41 25 -16 25 7
0 37 21 66 48 l53 47 8 85 c5 47 13 101 19 120 6 19 11 54 11 78 0 35 7 52 41
94 22 28 47 64 55 80 8 15 17 28 21 28 3 0 3 -73 -1 -162z m474 -73 c16 -66
31 -136 35 -155 l6 -35 -20 35 c-31 58 -72 220 -84 340 l-6 55 20 -60 c11 -33
33 -114 49 -180z m696 145 c14 -52 178 -340 288 -505 224 -335 478 -583 728
-713 l83 -43 -70 2 c-76 3 -182 26 -230 52 -29 15 -136 117 -123 117 4 0 -17
24 -45 53 -61 61 -139 157 -224 277 -79 111 -163 188 -163 150 0 -5 6 -10 14
-10 42 0 256 -329 256 -394 0 -8 9 -30 19 -48 25 -41 75 -215 95 -328 55 -303
49 -595 -15 -840 -47 -176 -159 -432 -254 -580 -68 -107 -182 -256 -219 -287
-17 -14 -30 -30 -28 -35 1 -5 -2 -7 -8 -3 -6 4 -33 -10 -61 -30 -28 -20 -53
-35 -54 -33 -2 2 9 24 26 50 44 68 133 279 167 398 42 145 80 332 98 480 14
118 20 482 10 560 -3 19 -7 63 -11 97 -31 330 -178 768 -337 1000 -19 29 -27
50 -23 65 3 13 7 95 9 183 2 88 7 224 11 303 l8 143 23 -28 c13 -15 27 -39 30
-53z m-629 8 c-3 -8 -6 -5 -6 6 -1 11 2 17 5 13 3 -3 4 -12 1 -19z m323 -185
c18 -66 33 -153 32 -183 -1 -23 -59 -147 -73 -155 -9 -6 -10 -3 -4 11 20 49
17 384 -3 384 -4 0 -7 -82 -7 -182 0 -129 -4 -194 -14 -221 -7 -22 -16 -35
-20 -30 -4 4 -15 43 -25 85 -10 43 -22 80 -27 83 -4 3 3 31 17 62 26 60 53
195 55 272 l1 46 24 -52 c14 -29 34 -83 44 -120z m127 105 c-3 -8 -6 -5 -6 6
-1 11 2 17 5 13 3 -3 4 -12 1 -19z m10 -40 c-3 -8 -6 -5 -6 6 -1 11 2 17 5 13
3 -3 4 -12 1 -19z m-1733 -35 c-4 -16 -13 -44 -20 -63 -11 -31 -13 -32 -13
-10 -1 36 18 100 30 100 5 0 7 -12 3 -27z m1743 -15 c-3 -7 -5 -2 -5 12 0 14
2 19 5 13 2 -7 2 -19 0 -25z m10 -65 c-3 -10 -5 -4 -5 12 0 17 2 24 5 18 2 -7
2 -21 0 -30z m40 -15 c-3 -8 -6 -5 -6 6 -1 11 2 17 5 13 3 -3 4 -12 1 -19z
m-102 -119 c8 -52 15 -126 15 -165 0 -133 -23 -221 -28 -107 -2 26 -7 95 -13
153 -6 58 -11 112 -11 120 1 29 15 101 19 96 2 -2 11 -46 18 -97z m112 39 c-2
-13 -4 -5 -4 17 -1 22 1 32 4 23 2 -10 2 -28 0 -40z m-567 -28 c11 -15 23 -63
30 -118 11 -87 11 -94 -7 -107 -10 -8 -21 -15 -24 -15 -3 0 -11 57 -17 128
-13 137 -14 177 -5 152 3 -8 14 -26 23 -40z m-5065 1 c-3 -6 -21 -18 -38 -27
l-32 -16 35 30 c34 29 49 34 35 13z m-1291 -20 c3 -5 -10 -28 -30 -52 -19 -23
-42 -51 -49 -63 -24 -34 -23 -14 3 57 21 56 29 67 48 67 12 0 25 -4 28 -9z
m176 -39 c62 -12 141 -17 293 -17 114 0 201 -2 195 -4 -7 -2 -85 -38 -173 -78
-178 -83 -155 -80 -345 -47 -152 26 -221 45 -212 59 4 6 27 36 52 64 40 47 48
52 75 46 17 -3 68 -14 115 -23z m1054 -34 c-15 -24 -76 -114 -137 -201 -103
-148 -115 -161 -168 -187 -123 -63 -281 -90 -554 -95 -190 -4 -227 -2 -370 27
l-60 12 91 12 c342 47 725 182 998 352 88 55 203 119 219 121 4 1 -5 -18 -19
-41z m5700 -37 c-4 -40 -10 -68 -14 -62 -6 11 10 144 17 137 2 -1 0 -36 -3
-75z m-2444 55 c0 -16 -18 -31 -27 -22 -8 8 5 36 17 36 5 0 10 -6 10 -14z
m2110 -174 c0 -16 -7 -26 -20 -29 -11 -3 -20 -9 -20 -14 0 -5 11 -4 24 0 23 9
23 9 35 -103 25 -250 7 -640 -39 -832 -24 -101 -24 -111 -4 -64 82 187 117
588 79 900 -18 141 -15 162 24 205 15 17 41 53 56 80 l29 50 8 -45 c11 -63 15
-360 5 -390 -6 -19 -6 -21 2 -10 8 11 11 4 11 -32 0 -27 5 -48 10 -48 6 0 10
11 10 25 0 14 17 76 39 138 21 61 42 131 46 154 4 24 11 46 17 49 18 11 -8
-105 -57 -251 -3 -11 0 -9 9 6 20 35 66 175 66 202 0 40 27 -1 113 -173 94
-187 146 -332 196 -547 107 -455 85 -996 -59 -1446 -46 -143 -113 -309 -141
-348 -10 -15 -19 -30 -19 -33 0 -19 -55 -86 -84 -101 l-32 -17 -145 55 c-285
110 -355 135 -429 156 -168 48 -263 87 -274 112 -35 86 -140 289 -163 316 -15
18 -41 50 -58 72 -33 43 -64 64 -98 66 -71 4 -70 4 -56 24 8 11 36 50 63 88
27 37 67 106 89 153 22 47 43 87 47 90 4 3 7 12 7 21 -1 44 27 80 85 111 74
39 191 147 255 235 61 83 65 68 23 -104 -37 -153 -50 -191 -103 -303 -51 -108
-83 -149 -159 -199 -71 -48 -68 -54 7 -11 120 69 208 239 279 540 14 58 28
128 31 155 4 28 23 84 42 125 107 228 172 546 174 842 0 120 18 246 32 232 4
-4 7 15 8 42 1 47 2 46 20 -36 10 -47 18 -96 19 -108z m-93 156 c-3 -8 -6 -5
-6 6 -1 11 2 17 5 13 3 -3 4 -12 1 -19z m14 -64 l-9 -39 -1 36 c-1 20 2 39 6
42 12 13 13 0 4 -39z m-6516 -38 c57 -14 212 -42 265 -48 15 -2 -19 -15 -83
-32 -105 -29 -109 -29 -209 -17 -57 7 -106 15 -110 17 -17 11 41 106 62 100 8
-3 42 -12 75 -20z m5942 -18 c-3 -8 -6 -5 -6 6 -1 11 2 17 5 13 3 -3 4 -12 1
-19z m-17 -100 c-39 -237 -128 -583 -185 -711 l-12 -27 -59 87 c-32 48 -62 93
-67 99 -4 8 12 36 41 71 135 162 216 310 264 480 12 45 24 80 26 78 2 -2 -1
-37 -8 -77z m466 -127 c-3 -102 -12 -220 -19 -261 -14 -74 -14 -72 -15 153 -1
125 -5 240 -8 254 -5 19 -2 30 11 39 10 7 22 11 28 7 6 -4 7 -73 3 -192z
m-4559 137 c-8 -74 -66 -206 -158 -359 -96 -159 -245 -362 -270 -367 -8 -1
-43 24 -78 56 l-64 58 28 92 28 93 60 36 c141 85 330 260 403 372 22 33 43 60
47 61 5 0 7 -19 4 -42z m57 -51 l37 -48 -37 -92 c-52 -130 -153 -331 -242
-480 l-77 -128 -40 7 c-53 8 -105 30 -105 44 0 6 15 28 34 48 73 79 215 289
280 416 52 102 106 238 106 269 0 11 2 18 4 16 2 -2 20 -26 40 -52z m2854 18
c-6 -14 -13 -23 -15 -21 -5 5 15 46 22 46 3 0 -1 -11 -7 -25z m122 -25 c8 -15
8 -20 -2 -20 -6 0 0 -12 14 -27 27 -30 58 -84 58 -103 0 -7 -25 -46 -55 -88
-30 -42 -55 -83 -55 -90 0 -10 -10 -13 -35 -10 -22 2 -34 0 -32 -6 4 -11 52
-13 122 -6 l40 5 22 -65 c12 -36 22 -77 23 -92 0 -23 -4 -28 -25 -28 l-25 0
35 -46 c19 -25 35 -56 35 -69 0 -12 -29 -80 -64 -150 -43 -84 -59 -124 -48
-119 65 27 104 1 98 -67 -2 -23 -8 -44 -13 -48 -6 -3 -18 -20 -26 -38 -14 -26
-15 -41 -7 -84 13 -69 13 -115 -2 -158 -16 -48 -15 -47 -42 -22 -23 22 -24 25
-10 63 30 85 14 102 -56 59 -28 -17 -52 -31 -55 -31 -3 0 -2 20 2 45 4 31 2
45 -6 45 -6 0 -11 -8 -11 -18 0 -10 -14 -67 -30 -127 -30 -105 -33 -148 -8
-89 8 18 21 29 32 29 11 0 22 7 24 15 5 13 3 13 -11 1 -15 -12 -17 -11 -17 12
0 33 36 76 89 105 38 21 41 22 40 5 0 -10 -13 -49 -28 -88 -30 -72 -30 -118
-1 -52 l17 37 21 -23 c18 -19 21 -33 20 -102 -1 -44 2 -88 6 -97 6 -14 0 -18
-40 -24 -31 -4 -53 -3 -63 5 -9 6 -24 14 -34 18 -10 3 -24 21 -32 39 -31 74
-43 40 -60 -166 -3 -36 -10 -92 -15 -125 -17 -104 -19 -127 -30 -250 -6 -66
-15 -138 -21 -160 -5 -22 -12 -50 -14 -63 -17 -96 -165 -522 -195 -564 -38
-52 -20 -66 22 -18 14 17 36 30 47 30 12 0 21 4 21 9 0 4 -12 6 -26 3 -20 -4
-25 -1 -21 9 3 8 13 37 23 66 15 46 22 54 63 71 55 24 101 34 147 34 19 0 31
4 28 9 -12 20 -109 6 -188 -26 -16 -7 -18 -5 -14 11 3 10 24 78 46 149 22 72
47 155 55 185 l15 55 1 -96 c1 -89 -1 -97 -19 -102 -11 -3 -20 -10 -20 -16 0
-9 5 -9 20 -1 16 9 20 8 20 -5 0 -8 5 -15 10 -15 6 0 10 7 10 15 0 20 50 32
61 14 7 -11 9 -11 9 -1 0 19 70 4 98 -21 27 -25 55 -113 50 -159 -3 -30 -9
-36 -70 -65 -40 -19 -69 -40 -73 -52 -4 -13 -12 -18 -23 -15 -14 5 -14 4 -2
-4 12 -9 12 -14 -4 -31 -11 -12 -29 -21 -41 -21 -38 0 -85 -12 -85 -22 0 -5
16 -6 36 -2 27 5 35 4 30 -5 -4 -6 -11 -9 -16 -6 -12 7 -50 -12 -50 -25 0 -15
19 -12 66 12 l44 22 30 -29 c35 -34 39 -81 15 -161 -16 -55 -20 -93 -6 -78 14
16 41 128 41 172 0 32 -7 49 -31 76 l-30 35 32 47 c22 32 46 52 78 66 25 11
54 27 64 36 36 32 10 167 -43 217 l-30 29 27 22 c28 22 28 24 28 134 0 94 -3
115 -17 123 -14 10 -13 15 14 48 21 26 30 48 30 72 0 20 5 38 12 40 8 3 10 -7
8 -33 -6 -60 16 -177 54 -285 45 -129 47 -140 40 -169 -4 -17 -11 -23 -21 -20
-33 13 -13 -34 35 -81 28 -27 50 -56 50 -65 0 -9 9 -33 20 -55 25 -49 25 -108
0 -163 -13 -29 -17 -49 -11 -59 5 -10 0 -47 -15 -100 -38 -138 -65 -328 -72
-503 l-7 -165 -38 100 c-21 55 -46 127 -57 160 -10 33 -23 71 -29 85 -9 22
-10 20 -5 -15 6 -40 81 -271 94 -290 4 -5 15 -32 25 -60 10 -27 28 -71 41 -96
l23 -46 -75 -77 c-48 -49 -85 -79 -103 -82 -16 -4 -31 -14 -34 -23 -3 -13 -22
-21 -72 -29 -38 -6 -71 -15 -74 -20 -9 -13 -532 -182 -564 -182 -23 0 -27 4
-27 28 0 16 -11 96 -26 178 -27 160 -44 451 -25 424 8 -12 11 -7 11 23 0 29 7
44 29 65 27 25 28 29 15 47 -14 19 -16 19 -25 3 -6 -10 -16 -18 -23 -18 -7 0
-24 -8 -37 -18 -13 -11 -37 -22 -54 -27 -16 -4 -24 -10 -17 -12 20 -7 -57 -63
-87 -63 -14 0 -40 12 -57 28 -34 30 -96 111 -76 98 15 -9 15 -13 -3 54 -18 68
-19 154 -2 168 21 18 136 54 148 46 7 -4 10 -2 7 7 -3 8 -11 13 -18 11 -11 -3
-11 0 0 12 23 28 30 17 31 -46 l1 -63 8 47 c5 26 7 56 5 65 -2 10 -4 24 -4 31
-2 22 -23 13 -67 -28 -24 -22 -48 -40 -54 -40 -12 0 -18 28 -24 108 -3 37 -11
71 -19 80 -14 15 -13 21 9 57 13 22 29 39 34 37 6 -1 10 2 10 7 0 5 18 17 40
27 22 10 40 21 40 26 0 4 7 8 15 8 8 0 24 9 36 21 17 17 23 18 36 8 26 -22 32
-52 14 -67 -12 -10 -12 -12 -2 -10 25 7 36 34 24 60 -13 29 -115 80 -151 76
-15 -2 -32 3 -38 11 -17 22 -37 3 -31 -28 5 -25 4 -27 -24 -23 -24 4 -29 1
-29 -16 0 -11 7 -33 15 -48 20 -39 20 -43 -16 -98 -16 -27 -29 -49 -27 -50 39
-17 43 -25 48 -97 3 -41 8 -79 13 -86 4 -7 0 -14 -13 -18 -29 -9 -48 -43 -51
-90 -3 -51 -8 -59 -25 -44 -9 7 -34 10 -64 7 -28 -3 -53 -1 -56 3 -14 23 -74
-4 -74 -33 0 -5 16 -24 36 -41 43 -38 95 -111 109 -152 17 -51 46 -40 69 25
24 68 25 69 38 45 6 -11 33 -41 59 -67 61 -60 90 -62 151 -13 43 35 107 70
114 62 9 -9 -76 -166 -93 -171 -10 -3 -25 -17 -33 -30 -8 -13 -36 -55 -61 -92
-25 -38 -79 -131 -120 -206 -41 -76 -79 -138 -85 -138 -6 0 -16 -18 -23 -41
-7 -22 -19 -43 -27 -46 -9 -3 -70 6 -137 20 -67 15 -174 36 -237 47 -63 12
-175 39 -248 60 -150 45 -178 63 -301 200 -74 82 -98 118 -187 287 -31 59 -60
112 -64 116 -4 4 9 49 28 100 19 51 35 112 36 136 l1 44 115 77 c63 42 159
106 214 143 54 37 105 67 112 67 10 0 14 -14 14 -47 0 -105 94 -405 191 -611
45 -97 105 -189 116 -178 3 3 -2 12 -11 21 -29 29 -84 139 -132 260 -96 249
-134 385 -140 510 l-6 100 26 -32 c22 -27 114 -111 235 -216 18 -16 35 -26 39
-23 3 4 -21 30 -54 58 -97 86 -225 211 -222 219 7 18 331 269 385 297 43 23
121 151 148 241 64 214 209 547 271 620 14 17 23 31 20 31 -4 0 -2 9 4 21 7
11 14 19 16 16 2 -2 -5 -64 -16 -137 -24 -156 -21 -197 4 -60 24 126 22 118
40 250 9 63 23 133 30 155 8 22 17 83 20 135 9 136 43 327 82 463 18 64 38
143 43 175 5 31 28 102 51 157 23 55 46 115 52 133 7 20 18 32 30 32 10 0 18
5 18 11 0 6 -7 9 -15 5 -8 -3 -15 -3 -15 -1 0 12 33 85 39 85 14 0 91 -148 91
-176 0 -10 11 -34 25 -54 14 -20 35 -64 48 -100 12 -35 28 -65 36 -68 9 -3 11
2 6 18 -5 15 -2 25 6 31 11 6 16 -10 26 -76 14 -100 65 -271 71 -237 2 12 -4
44 -12 70 -17 49 -46 192 -46 220 0 15 2 15 10 2 7 -11 10 -8 10 16 0 28 5 34
42 49 74 29 134 88 156 153 11 33 25 56 32 54 7 -1 18 3 26 9 12 10 14 -3 14
-77 l0 -89 -42 0 c-23 0 -43 -5 -45 -12 -3 -8 6 -10 31 -6 35 5 36 4 36 -25 0
-16 -9 -40 -19 -53 -19 -23 -20 -23 -39 -5 -24 21 -18 46 12 47 17 1 18 2 3 6
-20 5 -47 -13 -47 -32 0 -7 8 -23 18 -35 26 -32 59 -19 83 33 l19 42 0 -31 c0
-17 -7 -48 -15 -67 -30 -72 -14 -211 36 -308 10 -20 21 -49 24 -65 3 -16 8
-36 10 -44 2 -8 4 -24 5 -35 2 -14 4 -11 9 10 l7 30 17 -32 c11 -20 13 -34 7
-38 -6 -3 -10 -11 -10 -17 0 -6 7 -5 18 4 24 21 62 32 62 18 0 -6 5 -8 10 -5
6 3 10 12 10 19 0 17 -48 27 -54 12 -14 -39 -146 247 -146 318 0 19 5 21 47
18 33 -2 55 2 68 12 19 15 18 16 -10 6 -16 -6 -46 -8 -67 -5 -40 7 -46 20 -32
73 5 17 11 21 25 17 17 -6 18 -3 9 19 -8 22 -5 30 24 61 l33 35 -24 82 c-21
71 -25 105 -25 228 -1 236 -2 227 29 247 15 10 34 26 41 35 17 23 29 23 42 -2z
m200 -35 c0 -5 -5 -3 -10 5 -5 8 -10 20 -10 25 0 6 5 3 10 -5 5 -8 10 -19 10
-25z m-319 -3 c-6 -12 -11 -30 -11 -41 0 -12 -4 -21 -10 -21 -5 0 -10 5 -10
10 0 19 30 83 36 77 3 -3 1 -14 -5 -25z m2088 6 c0 -13 -7 -39 -14 -58 -13
-33 -14 -33 -14 -9 -1 39 10 89 20 89 5 0 9 -10 8 -22z m-1148 -232 c-28 -55
-64 -123 -81 -150 l-31 -48 -37 43 c-50 60 -121 127 -154 147 -17 10 -28 25
-28 38 0 22 1 22 38 8 20 -7 70 -23 110 -35 51 -15 78 -28 89 -45 8 -13 21
-24 28 -24 8 0 35 43 62 95 26 52 50 90 52 84 2 -6 -20 -57 -48 -113z m-5741
69 c209 -54 423 -59 714 -20 74 10 56 -12 -55 -68 -121 -61 -146 -68 -84 -23
65 47 48 46 -34 -3 -57 -33 -96 -45 -276 -84 -240 -53 -372 -77 -422 -77 l-34
0 6 58 c7 58 33 216 41 241 3 9 12 11 27 7 12 -4 65 -18 117 -31z m6397 -143
c-5 -148 -11 -193 -32 -265 -26 -92 -59 -174 -51 -127 3 14 16 87 30 162 14
75 31 198 38 272 6 75 14 136 17 136 2 0 1 -80 -2 -178z m-5587 128 c-19 -13
-30 -13 -30 0 0 6 10 10 23 10 18 0 19 -2 7 -10z m4312 -23 c4 -10 11 -116 14
-235 6 -212 16 -272 44 -272 5 0 6 -8 2 -18 -13 -33 -117 -181 -127 -182 -6 0
-15 10 -20 22 -6 12 -23 26 -40 31 -16 5 -31 11 -33 12 -1 1 18 46 44 99 54
111 63 169 32 202 -13 14 -16 24 -9 29 18 10 12 75 -12 145 -15 45 -21 83 -19
122 l3 57 37 3 c65 5 77 3 84 -15z m-385 -9 c-3 -8 -6 -5 -6 6 -1 11 2 17 5
13 3 -3 4 -12 1 -19z m836 5 c-7 -2 -19 -2 -25 0 -7 3 -2 5 12 5 14 0 19 -2
13 -5z m-1332 -45 c11 -21 11 -22 -4 -9 -10 7 -17 17 -17 22 0 15 9 10 21 -13z
m-1812 -7 c10 -6 -1 -12 -35 -19 -55 -12 -66 -8 -38 13 22 16 52 19 73 6z
m3251 -6 c0 -8 -2 -15 -4 -15 -2 0 -6 7 -10 15 -3 8 -1 15 4 15 6 0 10 -7 10
-15z m-725 -24 c-3 -6 -11 -11 -17 -11 -6 0 -6 6 2 15 14 17 26 13 15 -4z
m-2626 -23 c-2 -2 -17 -14 -34 -28 l-30 -25 29 32 c16 18 32 31 34 28 3 -3 3
-6 1 -7z m2485 -193 c14 -45 14 -51 -2 -68 -16 -18 -17 -18 -23 0 -4 10 -7 68
-7 128 0 103 1 106 9 50 5 -33 15 -82 23 -110z m-3029 -21 c-48 -105 -96 -184
-113 -184 -7 0 -12 3 -10 8 10 23 153 260 156 257 1 -1 -13 -38 -33 -81z
m-2097 69 c-10 -2 -26 -2 -35 0 -10 3 -2 5 17 5 19 0 27 -2 18 -5z m1435 -130
c-18 -76 -41 -194 -51 -263 l-18 -124 -46 -23 c-98 -49 -222 -74 -388 -80 -85
-2 -173 -1 -195 4 l-40 9 93 48 c190 99 358 238 533 441 68 79 104 110 145
125 1 0 -14 -62 -33 -137z m946 72 l0 -20 -9 20 c-5 11 -9 29 -9 40 l0 20 9
-20 c5 -11 9 -29 9 -40z m4046 -32 c-26 -227 -66 -426 -113 -568 -26 -77 -29
-81 -81 -112 -128 -77 -329 -126 -434 -107 -74 14 -63 1 18 -21 87 -24 238
-16 352 17 l81 25 -18 -46 c-55 -138 -116 -248 -187 -343 -25 -32 -45 -48 -67
-52 -17 -3 -44 -13 -60 -21 -25 -13 -130 -34 -173 -35 -7 0 -14 23 -18 58 -8
73 -24 152 -37 175 -5 10 -6 32 -3 47 4 16 1 39 -6 51 -9 17 -9 35 2 78 11 47
23 67 78 126 77 82 215 285 257 379 16 36 32 66 35 66 3 0 16 -9 29 -20 13
-11 28 -20 35 -20 7 0 19 -8 28 -18 16 -18 15 -21 -10 -56 -50 -67 -119 -150
-166 -198 -25 -27 -42 -48 -38 -48 19 0 144 137 211 233 18 26 34 47 36 47 1
0 15 -7 30 -15 33 -17 64 -20 64 -5 0 6 -4 10 -8 10 -5 0 -18 13 -30 29 l-22
30 63 99 c34 54 82 138 107 185 25 48 47 87 48 87 2 0 1 -26 -3 -57z m2220 27
c4 -6 -12 -10 -42 -9 -43 1 -45 2 -18 9 44 11 53 11 60 0z m-6213 -31 c19 12
20 11 15 -6 -3 -10 -19 -58 -36 -108 -62 -187 -83 -253 -107 -343 -27 -106
-68 -207 -121 -301 -44 -79 -54 -69 -54 56 0 125 34 285 75 348 7 11 21 34 31
50 l19 30 -24 -20 -24 -20 24 40 c13 22 30 49 37 60 23 35 14 40 -16 8 -44
-48 -108 -62 -198 -43 -67 15 -78 23 -64 48 8 14 25 22 63 27 109 15 216 65
277 129 31 32 35 34 47 18 18 -24 28 -9 13 20 -11 21 -11 22 5 9 15 -12 21
-13 38 -2z m-1952 -19 c47 -5 152 -10 233 -10 l148 0 -12 -22 c-31 -58 -198
-191 -370 -296 l-70 -43 -47 38 c-66 53 -171 158 -221 222 -32 42 -41 61 -39
85 l3 31 80 -3 c44 -2 91 1 105 7 14 6 43 8 65 6 22 -3 78 -10 125 -15z m1208
-36 c33 -33 49 -54 37 -50 -19 6 -19 6 -1 -9 17 -12 17 -17 5 -31 -32 -39
-184 -165 -187 -155 -3 8 56 240 73 289 7 19 13 15 73 -44z m-1598 26 c0 -11
-4 -20 -10 -20 -5 0 -14 9 -20 20 -9 17 -8 20 10 20 13 0 20 -7 20 -20z m4640
-21 c0 -6 -4 -7 -10 -4 -5 3 -10 11 -10 16 0 6 5 7 10 4 6 -3 10 -11 10 -16z
m778 -60 c-2 -6 -8 -10 -13 -10 -5 0 -11 4 -13 10 -2 6 4 11 13 11 9 0 15 -5
13 -11z m-3668 -65 l59 -36 -41 -57 c-23 -31 -64 -85 -91 -121 l-50 -65 55 53
c30 30 75 80 99 112 24 33 50 59 57 60 43 1 -177 -243 -298 -331 -271 -196
-572 -206 -912 -32 -49 25 -88 49 -88 53 0 17 48 18 120 3 142 -29 386 -4 541
57 30 12 63 24 73 26 47 9 237 153 331 251 33 34 66 62 73 62 8 1 40 -15 72
-35z m4268 -9 c-3 -3 -9 2 -12 12 -6 14 -5 15 5 6 7 -7 10 -15 7 -18z m-4198
5 c8 -5 11 -10 5 -10 -5 0 -17 5 -25 10 -8 5 -10 10 -5 10 6 0 17 -5 25 -10z
m60 -20 c-6 -11 -16 -17 -25 -13 -12 4 -13 9 -4 19 6 8 18 14 26 14 11 0 11
-4 3 -20z m3945 10 c4 -6 31 -26 61 -45 l54 -35 -15 -37 c-25 -59 -83 -160
-146 -253 -57 -85 -163 -210 -179 -210 -5 0 -11 18 -15 40 -5 31 -1 51 18 94
24 53 73 129 99 158 26 27 68 126 68 160 0 42 27 138 40 138 5 0 12 -5 15 -10z
m-4912 -118 c-59 -50 -94 -74 -99 -69 -5 4 114 94 126 96 3 0 -9 -12 -27 -27z
m5172 -12 c3 -5 2 -10 -4 -10 -5 0 -13 5 -16 10 -3 6 -2 10 4 10 5 0 13 -4 16
-10z m40 -30 c3 -6 -1 -7 -9 -4 -18 7 -21 14 -7 14 6 0 13 -4 16 -10z m-384
-27 c-12 -20 -14 -14 -5 12 4 9 9 14 11 11 3 -2 0 -13 -6 -23z m-3670 -30
c-49 -124 -67 -334 -35 -412 16 -39 15 -40 -12 -75 -18 -22 -31 -31 -35 -24
-4 7 -8 4 -11 -8 -3 -14 -12 -2 -32 39 -26 52 -28 64 -24 140 6 100 46 209
115 316 25 39 48 71 49 71 2 0 -5 -21 -15 -47z m-1531 -107 c0 -9 -40 -13 -46
-5 -3 5 6 9 20 9 14 0 26 -2 26 -4z m4670 -541 c0 -12 4 -25 10 -31 6 -6 6
-21 1 -41 -5 -16 -5 -36 -1 -43 4 -7 4 -27 -1 -44 -5 -17 -9 -51 -9 -76 0 -40
-1 -43 -14 -25 -8 12 -15 63 -19 127 -3 59 -11 116 -17 128 -10 18 -8 20 17
21 15 0 22 3 16 6 -7 2 -13 12 -13 21 1 26 30 -16 30 -43z m-90 21 c0 -8 5
-16 10 -18 13 -4 31 -125 29 -193 0 -27 2 -68 5 -90 9 -56 -3 -71 -44 -56 -18
6 -43 8 -56 5 -16 -4 -39 3 -71 22 -27 16 -52 27 -56 26 -5 -1 -6 5 -3 15 2
10 10 63 17 118 9 77 18 107 36 133 19 25 28 30 42 23 13 -7 22 -5 34 10 19
22 57 26 57 5z m-164 -356 c3 0 4 6 1 14 -5 11 0 11 24 -2 16 -9 29 -19 29
-22 0 -3 -21 -13 -46 -22 l-46 -16 6 30 c3 17 6 38 7 47 0 11 3 9 9 -6 5 -13
12 -23 16 -23z m262 5 c-2 -40 -18 -41 -29 -2 -7 24 0 34 24 36 4 1 7 -15 5
-34z m-95 -42 c17 -10 4 -54 -30 -98 l-37 -48 22 -15 c20 -13 22 -23 22 -112
0 -119 -12 -137 -85 -126 -33 5 -46 4 -50 -6 -3 -8 -17 -15 -30 -16 l-25 -2 0
99 0 98 38 7 c71 11 75 10 68 -26 -5 -31 -5 -32 9 -14 17 23 18 35 6 55 -7 11
-22 12 -65 7 l-56 -6 1 42 c0 24 4 63 7 88 7 43 9 46 62 67 51 21 113 24 143
6z m-3843 -14 c57 -1 70 -18 54 -75 -10 -37 -161 -56 -289 -36 -40 7 -72 6
-97 0 -39 -11 -108 -3 -108 12 0 6 5 10 11 10 6 0 9 6 6 14 -5 12 15 16 104
22 101 6 112 9 147 36 35 28 41 30 97 24 33 -4 67 -7 75 -7z m3737 -405 c-3
-3 -12 -4 -19 -1 -8 3 -5 6 6 6 11 1 17 -2 13 -5z m273 -136 c0 -14 -10 -9
-38 18 l-27 26 33 -18 c17 -10 32 -22 32 -26z m-1160 -278 c0 -13 -30 -13 -50
0 -11 7 -7 10 18 10 17 0 32 -4 32 -10z m1279 -260 c38 -71 70 -145 82 -195
25 -98 51 -145 100 -184 47 -39 76 -107 63 -154 -8 -28 -23 -39 -125 -92 -64
-33 -135 -75 -158 -93 -23 -19 -48 -32 -55 -29 -8 3 -25 30 -39 60 -22 49 -24
64 -21 167 5 161 22 340 44 445 23 112 43 196 46 192 1 -1 29 -54 63 -117z
m-1456 -380 c3 -11 1 -18 -4 -14 -5 3 -9 12 -9 20 0 20 7 17 13 -6z m303 -268
c-4 -3 -11 -1 -17 5 -8 8 -7 18 3 34 l13 24 3 -28 c2 -16 1 -31 -2 -35z m1310
-1386 l19 -58 -25 -20 c-35 -27 -146 -98 -154 -98 -3 0 -6 5 -6 11 0 5 5 7 10
4 6 -3 10 -1 10 4 0 6 -9 11 -20 11 -31 0 -23 -60 9 -60 27 -1 -8 -16 -54 -24
-38 -7 -39 -7 -20 9 17 14 17 16 2 11 -20 -6 -18 -2 46 104 42 69 147 185 157
172 4 -4 15 -33 26 -66z m-3322 20 c48 -14 99 -26 113 -26 19 0 24 -4 19 -16
-3 -9 -6 -29 -6 -45 0 -22 -5 -29 -20 -29 -23 0 -26 20 -7 39 10 10 8 11 -7 5
-10 -4 -32 -7 -50 -8 -24 -1 -34 5 -44 24 l-12 25 5 -27 c5 -24 2 -28 -19 -28
-41 0 -76 -18 -86 -44 -11 -30 -43 -48 -77 -44 -21 2 -28 11 -39 48 -21 71
-18 82 39 122 59 43 61 43 191 4z m2892 -53 c3 -16 10 -41 15 -57 5 -16 6 -32
3 -35 -3 -3 -42 -6 -86 -6 -86 0 -108 12 -108 60 0 18 11 25 63 40 34 9 67 19
72 20 26 8 35 3 41 -22z m60 4 l28 -24 -24 -32 -23 -33 -18 53 c-11 29 -19 55
-19 56 0 11 34 -1 56 -20z m-2625 -13 c27 -15 46 -31 43 -36 -3 -5 2 -16 12
-23 23 -18 38 -19 28 -3 -4 7 30 -17 77 -53 46 -36 105 -80 132 -98 l47 -32 0
-81 c0 -88 -3 -89 -43 -16 -59 106 -88 147 -161 222 -47 49 -45 38 2 -14 57
-61 192 -285 192 -317 0 -4 -16 9 -35 30 -19 21 -35 45 -35 53 0 8 -19 23 -42
34 -24 11 -70 44 -103 74 l-59 55 13 51 c15 60 9 77 -10 26 l-13 -36 -64 0
c-49 0 -71 5 -93 21 -30 21 -39 14 -16 -11 6 -8 1 -6 -12 5 -38 32 -54 73 -47
118 4 22 9 44 12 49 3 4 32 8 66 8 46 0 72 -6 109 -26z m2379 -64 c0 -8 11
-37 25 -65 14 -27 22 -51 18 -51 -4 -1 -51 -16 -103 -32 -142 -45 -219 -64
-233 -56 -7 4 -4 -2 7 -14 40 -46 30 -156 -19 -202 -46 -43 -190 -35 -227 13
-16 21 -17 21 -37 3 -11 -10 -24 -15 -29 -12 -13 8 -10 -27 3 -37 16 -12 -25
-37 -59 -37 -17 0 -46 -9 -65 -21 -30 -18 -37 -19 -65 -7 -17 7 -37 11 -44 10
-8 -2 -21 3 -31 12 -9 8 -39 20 -66 27 -64 16 -79 29 -34 29 19 0 39 4 45 10
5 5 64 21 129 34 156 33 188 42 256 77 31 15 59 25 63 22 3 -4 12 1 19 9 23
30 245 203 361 282 69 47 85 49 86 6z m-2676 15 c-4 -8 -8 -15 -10 -15 -2 0
-4 7 -4 15 0 8 4 15 10 15 5 0 7 -7 4 -15z m2913 -72 c-3 -10 -5 -4 -5 12 0
17 2 24 5 18 2 -7 2 -21 0 -30z m-2085 -230 c54 -15 56 -17 47 -41 -5 -14 -23
-42 -40 -63 -26 -33 -37 -39 -68 -39 -30 0 -44 8 -75 39 -38 39 -39 42 -41
119 l-2 80 61 -40 c34 -21 87 -46 118 -55z m580 53 c-5 -27 -23 -43 -62 -51
-30 -7 -86 -51 -142 -112 l-20 -21 -38 19 c-72 38 -75 101 -6 120 22 6 79 24
126 40 97 33 147 35 142 5z m-928 -45 c-3 -3 -15 6 -27 18 l-22 24 27 -19 c14
-10 24 -21 22 -23z m588 -35 c3 -5 0 -27 -8 -49 -8 -22 -14 -47 -14 -57 0 -30
-22 -38 -85 -32 l-60 7 -1 70 0 70 80 0 c45 1 84 -3 88 -9z m10 -99 c-19 -39
-23 -30 -10 23 9 33 13 39 18 25 4 -10 0 -32 -8 -48z m-399 20 c15 -23 15 -24
-9 -19 -15 3 -24 11 -24 23 0 26 15 24 33 -4z m194 1 c-3 -8 -6 -5 -6 6 -1 11
2 17 5 13 3 -3 4 -12 1 -19z"/>
<path d="M6301 9564 c0 -11 3 -14 6 -6 3 7 2 16 -1 19 -3 4 -6 -2 -5 -13z"/>
<path d="M4739 8523 c-13 -16 -12 -17 4 -4 16 13 21 21 13 21 -2 0 -10 -8 -17
-17z"/>
<path d="M1838 7203 c23 -2 59 -2 80 0 20 2 1 4 -43 4 -44 0 -61 -2 -37 -4z"/>
<path d="M7480 8766 c0 -2 7 -6 15 -10 8 -3 15 -1 15 4 0 6 -7 10 -15 10 -8 0
-15 -2 -15 -4z"/>
<path d="M7450 8455 c-13 -14 -30 -25 -37 -25 -8 0 -11 -4 -8 -10 11 -18 31
-10 54 21 28 38 22 47 -9 14z"/>
<path d="M7063 8429 c26 -15 87 -40 87 -35 0 6 -84 46 -96 46 -5 0 -1 -5 9
-11z"/>
<path d="M4860 9207 c0 -25 5 -49 11 -52 7 -5 8 8 3 41 -9 64 -14 68 -14 11z"/>
<path d="M6830 7785 c0 -5 9 -21 20 -35 11 -14 20 -20 20 -15 0 6 -9 21 -20
35 -11 14 -20 21 -20 15z"/>
<path d="M5699 8891 c-19 -15 -24 -29 -24 -68 0 -64 22 -116 47 -110 10 3 18
0 18 -7 0 -15 123 -126 139 -126 6 0 -7 16 -29 36 -45 41 -93 131 -88 166 2
19 10 23 46 26 24 2 50 -2 58 -9 29 -24 25 1 -6 35 -30 33 -102 76 -127 76 -6
0 -21 -9 -34 -19z"/>
<path d="M5096 7815 c-11 -8 -28 -27 -38 -42 -21 -33 -24 -93 -5 -93 9 0 12
11 9 33 -3 24 4 43 27 75 17 23 30 42 29 42 -2 0 -12 -7 -22 -15z"/>
<path d="M3985 6400 c-11 -18 53 -120 77 -120 5 0 -2 15 -16 33 -13 17 -28 44
-31 60 -8 30 -21 42 -30 27z"/>
<path d="M3912 6188 c-43 -55 -55 -133 -24 -161 20 -18 57 -23 66 -8 4 5 -2 7
-12 4 -25 -6 -55 31 -54 68 1 37 27 80 53 86 10 3 16 9 13 14 -8 13 -30 11
-42 -3z"/>
<path d="M6685 7461 c-23 -3 -35 -9 -28 -14 6 -4 18 -4 27 -1 9 4 30 1 47 -6
23 -10 33 -10 42 -1 9 9 8 14 -3 21 -16 10 -23 10 -85 1z"/>
<path d="M9387 6273 c-4 -3 -7 -11 -7 -17 0 -6 5 -5 12 2 6 6 9 14 7 17 -3 3
-9 2 -12 -2z"/>
<path d="M7856 4534 c-5 -14 -4 -15 9 -4 17 14 19 20 6 20 -5 0 -12 -7 -15
-16z"/>
<path d="M6831 5894 c0 -11 3 -14 6 -6 3 7 2 16 -1 19 -3 4 -6 -2 -5 -13z"/>
<path d="M6179 5798 c-1 -7 0 -23 1 -35 1 -13 -6 -57 -16 -100 -22 -98 -15
-260 12 -280 9 -7 22 -9 28 -6 6 4 5 0 -2 -9 -11 -13 -7 -19 25 -39 l38 -23
-61 -6 c-33 -4 -66 -10 -72 -14 -8 -5 -10 -35 -6 -98 5 -104 15 -153 45 -234
17 -44 20 -70 16 -116 -5 -56 -4 -59 16 -56 15 2 23 11 25 28 2 20 1 22 -7 10
-8 -11 -11 -3 -11 34 0 27 -11 81 -24 120 -31 91 -45 167 -40 228 2 32 -1 48
-9 48 -6 0 -4 7 5 17 26 25 131 21 198 -8 52 -22 53 -22 66 -3 34 50 39 51 42
11 5 -55 22 -45 22 13 0 40 -5 56 -27 80 -28 31 -29 31 -143 34 -112 2 -115 3
-121 27 -13 44 -9 182 6 243 8 34 16 74 17 90 l3 29 53 -42 c28 -23 52 -39 52
-37 0 3 -24 28 -52 56 -53 50 -77 61 -79 38z"/>
<path d="M6423 5177 c35 -29 38 -35 35 -77 l-3 -45 -58 1 c-42 1 -74 9 -117
31 -33 16 -60 26 -60 22 0 -18 130 -69 178 -70 l49 -2 -21 -61 c-15 -46 -32
-72 -64 -100 -23 -21 -50 -51 -59 -67 -21 -35 -49 -47 -137 -56 -44 -5 -71
-13 -74 -22 -3 -9 2 -11 14 -8 11 3 49 9 85 12 73 8 74 7 132 -85 27 -42 68
-51 99 -23 20 18 20 17 16 -57 -3 -41 -15 -118 -28 -170 -14 -59 -21 -107 -16
-123 10 -40 22 -33 18 11 -2 20 8 86 23 146 17 71 25 131 24 173 -1 34 1 66 4
70 4 3 7 16 7 29 0 12 6 22 13 21 36 -1 47 7 67 47 19 41 20 47 6 79 -17 41
-45 59 -92 59 -19 0 -34 3 -34 7 0 3 11 42 25 86 33 108 32 130 -9 171 -19 19
-40 34 -47 34 -8 0 3 -15 24 -33z m90 -297 c35 -28 41 -53 21 -95 -16 -35 -33
-46 -35 -22 0 10 -2 10 -6 0 -8 -21 -27 -15 -58 17 -26 27 -27 31 -15 59 7 17
16 28 20 26 5 -3 11 -1 15 5 3 5 1 10 -4 10 -6 0 -11 5 -11 10 0 17 46 11 73
-10z"/>
<path d="M6815 4820 c10 -11 23 -20 28 -20 6 0 2 9 -8 20 -10 11 -23 20 -28
20 -6 0 -2 -9 8 -20z"/>
<path d="M6036 4710 c-33 -40 -33 -52 3 -116 l30 -52 -20 -18 c-12 -10 -37
-40 -56 -67 -33 -45 -35 -51 -28 -102 5 -45 12 -59 44 -88 20 -18 59 -44 86
-57 36 -18 45 -26 31 -28 -10 -2 -23 1 -29 7 -6 6 -26 11 -44 11 -18 0 -58 11
-89 25 -92 41 -93 40 -145 -109 -24 -71 -50 -128 -65 -143 -31 -30 -30 -53 1
-87 14 -15 25 -31 25 -37 0 -5 5 -9 12 -9 6 0 2 -10 -9 -22 -20 -22 -53 -135
-53 -180 0 -41 17 -4 34 76 19 90 30 109 58 100 10 -3 25 -1 32 5 6 6 54 12
106 13 52 2 95 8 97 13 2 7 -12 9 -37 7 -30 -3 -41 0 -46 12 -4 9 -21 23 -40
31 -35 14 -61 55 -90 141 -15 44 -14 49 7 113 13 36 26 70 31 75 12 15 128
-36 128 -56 0 -23 27 -48 61 -55 16 -3 29 -10 29 -15 0 -5 7 -2 16 6 8 9 25
16 37 16 12 0 41 9 65 20 68 31 53 69 -50 130 -35 20 -58 41 -58 51 0 10 -14
29 -31 43 -20 17 -35 41 -40 67 -9 39 -8 42 28 75 l37 34 -31 42 c-44 63 -48
82 -22 118 30 40 18 49 -15 10z"/>
<path d="M6180 4523 c0 -5 18 -35 40 -68 44 -67 54 -66 15 2 -30 49 -26 52 31
19 47 -27 134 -58 134 -48 -1 8 -194 102 -210 102 -5 0 -10 -3 -10 -7z"/>
<path d="M5620 4220 c0 -6 -23 -69 -51 -141 -52 -133 -119 -247 -180 -309
-103 -104 -171 -212 -153 -242 10 -15 19 -8 20 16 3 41 33 89 105 166 38 41
89 104 113 140 42 64 106 189 106 208 0 5 14 42 30 82 33 79 35 90 20 90 -5 0
-10 -5 -10 -10z"/>
<path d="M6367 4093 c-4 -3 -7 -16 -7 -27 1 -20 1 -20 15 -2 13 18 16 18 39 2
34 -22 41 -57 22 -98 -17 -34 -71 -78 -98 -78 -45 0 -78 118 -43 154 11 11 24
14 38 10 19 -6 20 -5 8 10 -18 22 -28 20 -56 -9 -43 -42 -27 -147 26 -175 45
-25 112 17 143 90 12 30 12 40 1 66 -19 45 -69 77 -88 57z"/>
<path d="M6856 3991 c-4 -7 -5 -15 -2 -18 9 -9 19 4 14 18 -4 11 -6 11 -12 0z"/>
<path d="M6820 3936 c0 -9 5 -16 10 -16 6 0 10 4 10 9 0 6 -4 13 -10 16 -5 3
-10 -1 -10 -9z"/>
<path d="M6230 3720 c-6 -22 -24 -84 -40 -136 -32 -102 -41 -171 -13 -99 37
98 81 275 68 275 -2 0 -9 -18 -15 -40z"/>
<path d="M5936 3640 c16 -16 145 -60 177 -60 46 0 30 17 -24 24 -28 4 -73 16
-100 26 -56 23 -68 25 -53 10z"/>
<path d="M6220 3484 c0 -3 20 -14 44 -24 64 -29 71 -41 48 -87 -24 -46 -145
-413 -139 -419 5 -5 70 159 93 236 21 72 66 193 75 203 3 5 17 -6 29 -23 12
-17 24 -29 27 -26 10 10 -40 82 -70 101 -60 36 -107 53 -107 39z"/>
<path d="M6097 3283 c-15 -14 -6 -23 18 -17 20 5 25 2 30 -19 8 -32 -20 -93
-52 -114 -23 -15 -26 -15 -44 4 -11 10 -22 37 -24 59 l-5 39 14 -30 c15 -29
15 -29 15 -5 1 34 -14 54 -33 47 -43 -17 0 -147 48 -147 50 0 106 74 106 139
0 25 -6 34 -26 41 -30 12 -38 12 -47 3z"/>
<path d="M6597 3258 c-2 -7 4 -29 13 -48 16 -31 16 -42 6 -100 -15 -78 -51
-164 -66 -155 -5 3 -10 12 -10 19 0 7 -9 21 -19 30 -22 20 -36 7 -26 -25 6
-17 4 -20 -6 -13 -23 14 -40 28 -71 58 -27 27 -53 29 -33 2 6 -7 26 -36 45
-65 24 -35 44 -54 63 -58 15 -3 27 -11 27 -18 0 -26 -57 -70 -108 -84 -44 -12
-50 -17 -39 -29 10 -13 6 -14 -29 -10 -23 3 -57 13 -77 23 -19 9 -41 18 -49
19 -7 2 -26 8 -41 14 -29 12 -95 17 -85 6 4 -3 21 -8 40 -11 18 -2 43 -11 56
-19 12 -8 22 -12 22 -9 0 3 19 -4 42 -16 23 -12 61 -23 84 -24 22 -2 50 -6 62
-9 11 -4 37 0 58 9 34 14 38 14 50 -2 12 -17 14 -17 41 3 15 12 34 38 42 59
13 34 13 39 -1 49 -32 24 -32 61 0 108 16 24 35 61 42 83 17 52 14 140 -7 171
-17 27 -11 39 22 47 13 3 9 5 -12 6 -17 0 -33 -5 -36 -11z m-92 -336 c-8 -9
-34 7 -45 28 -12 22 -11 22 19 -1 17 -12 29 -25 26 -27z"/>
<path d="M5765 3210 c-10 -11 -13 -20 -7 -20 6 0 16 9 22 20 6 11 9 20 7 20
-2 0 -12 -9 -22 -20z"/>
<path d="M5425 3000 c3 -5 11 -10 16 -10 6 0 7 5 4 10 -3 6 -11 10 -16 10 -6
0 -7 -4 -4 -10z"/>
<path d="M6140 2510 c0 -5 5 -10 11 -10 5 0 7 5 4 10 -3 6 -8 10 -11 10 -2 0
-4 -4 -4 -10z"/>
<path d="M6990 5740 c0 -5 5 -10 11 -10 5 0 7 5 4 10 -3 6 -8 10 -11 10 -2 0
-4 -4 -4 -10z"/>
<path d="M6640 4245 c0 -8 5 -15 10 -15 6 0 10 7 10 15 0 8 -4 15 -10 15 -5 0
-10 -7 -10 -15z"/>
<path d="M4560 956 c0 -2 8 -10 18 -17 15 -13 16 -12 3 4 -13 16 -21 21 -21
13z"/>
<path d="M3283 11099 c1 -12 -4 -24 -13 -26 -13 -4 -13 -3 0 6 8 6 10 11 4 11
-6 0 -18 -7 -25 -16 -12 -15 -11 -19 9 -32 25 -16 30 -34 7 -26 -10 4 -15 0
-15 -14 0 -28 17 -37 28 -15 15 29 24 121 12 128 -6 4 -9 -3 -7 -16z"/>
<path d="M3420 9011 c0 -5 5 -13 10 -16 6 -3 10 -2 10 4 0 5 -4 13 -10 16 -5
3 -10 2 -10 -4z"/>
<path d="M617 7893 c-4 -3 -7 -11 -7 -17 0 -6 5 -5 12 2 6 6 9 14 7 17 -3 3
-9 2 -12 -2z"/>
<path d="M2443 7614 c9 -10 178 -11 183 -2 3 5 -39 8 -92 8 -54 0 -94 -3 -91
-6z"/>
<path d="M431 7174 c0 -11 3 -14 6 -6 3 7 2 16 -1 19 -3 4 -6 -2 -5 -13z"/>
<path d="M545 6599 c-160 -15 -358 -69 -495 -134 -61 -29 -55 -28 77 8 141 39
259 50 476 45 l194 -4 -41 48 c-46 54 -46 54 -211 37z"/>
<path d="M770 6290 c115 -33 380 -90 420 -90 19 0 8 10 -45 40 -59 33 -79 39
-130 40 -51 0 -166 13 -312 34 -21 4 9 -8 67 -24z"/>
<path d="M1088 5873 c7 -3 16 -2 19 1 4 3 -2 6 -13 5 -11 0 -14 -3 -6 -6z"/>
</g>
</svg>
